<svg width="17" height="17" viewBox="0 0 17 17"  xmlns="http://www.w3.org/2000/svg">
<mask id="path-1-outside-1_2718_272" maskUnits="userSpaceOnUse" x="-1" y="-1" width="18" height="18" >
<rect  x="-1" y="-1" width="18" height="18"/>
<path d="M16.0371 13.4909H15.7826C15.7784 13.4909 15.774 13.4909 15.7698 13.4909C15.64 13.4833 15.5016 13.3633 15.4631 13.3213C15.4147 13.2675 15.346 13.2367 15.2734 13.2367C15.2009 13.2367 15.1322 13.2675 15.0838 13.3213C15.0517 13.3573 14.9034 13.4912 14.7643 13.4912C14.6937 13.4912 14.6195 13.4556 14.5594 13.4158L15.5095 11.0401C15.5369 10.9721 15.5334 10.8951 15.5 10.8298C15.4666 10.7643 15.4064 10.7165 15.3352 10.6987L14.5098 10.4922V9.4183C14.5098 9.30152 14.4302 9.1997 14.3169 9.17138L12.2805 8.66227C12.2401 8.65208 12.1974 8.65208 12.157 8.66227L10.1206 9.17138C10.0073 9.1997 9.92773 9.30152 9.92773 9.4183V10.4922L9.10233 10.6987C9.03106 10.7165 8.97092 10.7643 8.93751 10.8298C8.9041 10.8954 8.90059 10.9721 8.92796 11.0401L9.87841 13.4161C9.81891 13.4556 9.74509 13.4912 9.6735 13.4912C9.54017 13.4912 9.3938 13.3646 9.35403 13.3213C9.30566 13.2675 9.23693 13.2367 9.16438 13.2367C9.09183 13.2367 9.0231 13.2675 8.97473 13.3213C8.9426 13.3573 8.79432 13.4912 8.65527 13.4912C8.56363 13.4912 8.46594 13.4314 8.40071 13.3798V12.2184C8.40071 12.0778 8.28679 11.9639 8.14615 11.9639H7.12792V11.2002C7.12792 11.0596 7.01401 10.9456 6.87336 10.9456H6.08487L5.35398 3.81804H11.4554V4.58171C11.4554 4.72236 11.5693 4.83627 11.71 4.83627H11.9645V6.10906C11.9645 6.46894 12.1548 6.65922 12.2935 6.79827C12.4183 6.923 12.4736 6.98442 12.4736 7.12729C12.4736 7.27016 12.3594 7.38184 12.2191 7.38184C12.0787 7.38184 11.9645 7.26761 11.9645 7.12729C11.9645 6.98696 11.8506 6.87273 11.71 6.87273C11.5693 6.87273 11.4554 6.98664 11.4554 7.12729C11.4554 7.54826 11.7981 7.89096 12.2191 7.89096C12.64 7.89096 12.9827 7.54826 12.9827 7.12729C12.9827 6.76741 12.7925 6.57712 12.6537 6.43807C12.529 6.31334 12.4736 6.25193 12.4736 6.10906V4.83627H12.7282C12.8688 4.83627 12.9827 4.72236 12.9827 4.58171V3.81804H13.7464C13.8871 3.81804 14.001 3.70413 14.001 3.56348V2.54525C14.001 2.40461 13.8871 2.2907 13.7464 2.2907H5.19679L5.08955 1.24638C5.07619 1.11655 4.96673 1.01791 4.83627 1.01791H4.32716V0.254557C4.32716 0.113914 4.21324 0 4.0726 0C3.93196 0 3.81804 0.113914 3.81804 0.254557V1.01823H3.30893C3.17847 1.01823 3.06901 1.11687 3.05564 1.24669L2.94841 2.29102H1.52671C1.38606 2.29102 1.27215 2.40493 1.27215 2.54557V3.5638C1.27215 3.70444 1.38606 3.81836 1.52671 3.81836H2.79154L2.06064 10.946H1.27215C1.13151 10.946 1.01759 11.0599 1.01759 11.2005V11.9642H0.254557C0.113914 11.9642 0 12.0781 0 12.2188L0 16.0371C0 16.1778 0.113914 16.2917 0.254557 16.2917H16.0371C16.1778 16.2917 16.2917 16.1778 16.2917 16.0371V13.7455C16.2917 13.6048 16.1778 13.4909 16.0371 13.4909ZM5.5729 10.946H4.32747V9.92773H5.46853L5.5729 10.946ZM5.41634 9.41862H4.32779V8.40039H5.31197L5.41634 9.41862ZM4.99855 5.3457L5.10292 6.36457C5.0991 6.36457 5.09496 6.36393 5.09115 6.36393H4.32747V5.3457H4.99855ZM4.32747 4.83659V3.81836H4.84168L4.94605 4.83659H4.32716H4.32747ZM5.09115 6.87305C5.1131 6.87305 5.1341 6.86986 5.15415 6.86477L5.25947 7.89128H4.32747V6.87305H5.09115ZM12.4733 4.32747H11.9642V3.81836H12.4733V4.32747ZM4.32747 1.52734H4.60685L4.68513 2.29102H4.32747V1.52734ZM3.53898 1.52734H3.81836V2.29102H3.46071L3.53898 1.52734ZM1.7819 3.30924V2.80013H13.4915V3.30924H1.7819ZM3.05469 6.36393C3.05087 6.36393 3.04673 6.36425 3.04291 6.36457L3.14728 5.3457H3.81836V6.36393H3.05469ZM3.81836 6.87305V7.89128H2.88636L2.99168 6.86477C3.01205 6.86986 3.03305 6.87305 3.05469 6.87305H3.81836ZM3.19947 4.83659L3.30384 3.81836H3.81804V4.83659H3.19915H3.19947ZM2.83386 8.40039H3.81804V9.41862H2.72949L2.83386 8.40039ZM2.67731 9.92773H3.81836V10.946H2.57294L2.67731 9.92773ZM1.52734 11.4551H6.61849V11.9642H1.52734V11.4551ZM7.89128 15.7826H0.509115V12.4733H7.89128V15.7826ZM10.4368 9.61749L12.2188 9.17202L14.0007 9.61749V10.3656L12.2805 9.93569C12.2401 9.92551 12.1974 9.92551 12.157 9.93569L10.4368 10.3656V9.61749ZM9.50867 11.1222L12.2188 10.4448L14.9288 11.1222L14.0382 13.349C13.9812 13.4012 13.8606 13.4919 13.7461 13.4919C13.6128 13.4919 13.4664 13.3652 13.4266 13.3219C13.3783 13.2682 13.3095 13.2373 13.237 13.2373C13.1644 13.2373 13.0957 13.2682 13.0473 13.3219C13.0152 13.3579 12.8669 13.4919 12.7279 13.4919C12.6362 13.4919 12.5385 13.432 12.4733 13.3805V11.4554C12.4733 11.3148 12.3594 11.2008 12.2188 11.2008C12.0781 11.2008 11.9642 11.3148 11.9642 11.4554V13.3808C11.9006 13.4314 11.8032 13.4919 11.7096 13.4919C11.5763 13.4919 11.4299 13.3652 11.3902 13.3219C11.3418 13.2682 11.2731 13.2373 11.2005 13.2373C11.128 13.2373 11.0592 13.2682 11.0109 13.3219C10.9787 13.3579 10.8305 13.4919 10.6914 13.4919C10.5797 13.4919 10.4588 13.4028 10.3993 13.3487L9.50899 11.1226L9.50867 11.1222ZM15.7826 15.7826H8.40039V13.9564C8.47835 13.9831 8.56363 14.0007 8.65495 14.0007C8.86146 14.0007 9.03933 13.9125 9.16406 13.8256C9.2888 13.9125 9.46667 14.0007 9.67318 14.0007C9.87969 14.0007 10.0576 13.9125 10.1823 13.8256C10.307 13.9125 10.4849 14.0007 10.6914 14.0007C10.8979 14.0007 11.0758 13.9125 11.2005 13.8256C11.3253 13.9125 11.5031 14.0007 11.7096 14.0007C11.9161 14.0007 12.094 13.9125 12.2188 13.8256C12.3435 13.9125 12.5214 14.0007 12.7279 14.0007C12.9344 14.0007 13.1122 13.9125 13.237 13.8256C13.3617 13.9125 13.5396 14.0007 13.7461 14.0007C13.9526 14.0007 14.1305 13.9125 14.2552 13.8256C14.3799 13.9125 14.5578 14.0007 14.7643 14.0007C14.9708 14.0007 15.1487 13.9125 15.2734 13.8256C15.3982 13.9125 15.576 14.0007 15.7826 14.0007V15.7826Z"/>
</mask>
<path d="M16.0371 13.4909H15.7826C15.7784 13.4909 15.774 13.4909 15.7698 13.4909C15.64 13.4833 15.5016 13.3633 15.4631 13.3213C15.4147 13.2675 15.346 13.2367 15.2734 13.2367C15.2009 13.2367 15.1322 13.2675 15.0838 13.3213C15.0517 13.3573 14.9034 13.4912 14.7643 13.4912C14.6937 13.4912 14.6195 13.4556 14.5594 13.4158L15.5095 11.0401C15.5369 10.9721 15.5334 10.8951 15.5 10.8298C15.4666 10.7643 15.4064 10.7165 15.3352 10.6987L14.5098 10.4922V9.4183C14.5098 9.30152 14.4302 9.1997 14.3169 9.17138L12.2805 8.66227C12.2401 8.65208 12.1974 8.65208 12.157 8.66227L10.1206 9.17138C10.0073 9.1997 9.92773 9.30152 9.92773 9.4183V10.4922L9.10233 10.6987C9.03106 10.7165 8.97092 10.7643 8.93751 10.8298C8.9041 10.8954 8.90059 10.9721 8.92796 11.0401L9.87841 13.4161C9.81891 13.4556 9.74509 13.4912 9.6735 13.4912C9.54017 13.4912 9.3938 13.3646 9.35403 13.3213C9.30566 13.2675 9.23693 13.2367 9.16438 13.2367C9.09183 13.2367 9.0231 13.2675 8.97473 13.3213C8.9426 13.3573 8.79432 13.4912 8.65527 13.4912C8.56363 13.4912 8.46594 13.4314 8.40071 13.3798V12.2184C8.40071 12.0778 8.28679 11.9639 8.14615 11.9639H7.12792V11.2002C7.12792 11.0596 7.01401 10.9456 6.87336 10.9456H6.08487L5.35398 3.81804H11.4554V4.58171C11.4554 4.72236 11.5693 4.83627 11.71 4.83627H11.9645V6.10906C11.9645 6.46894 12.1548 6.65922 12.2935 6.79827C12.4183 6.923 12.4736 6.98442 12.4736 7.12729C12.4736 7.27016 12.3594 7.38184 12.2191 7.38184C12.0787 7.38184 11.9645 7.26761 11.9645 7.12729C11.9645 6.98696 11.8506 6.87273 11.71 6.87273C11.5693 6.87273 11.4554 6.98664 11.4554 7.12729C11.4554 7.54826 11.7981 7.89096 12.2191 7.89096C12.64 7.89096 12.9827 7.54826 12.9827 7.12729C12.9827 6.76741 12.7925 6.57712 12.6537 6.43807C12.529 6.31334 12.4736 6.25193 12.4736 6.10906V4.83627H12.7282C12.8688 4.83627 12.9827 4.72236 12.9827 4.58171V3.81804H13.7464C13.8871 3.81804 14.001 3.70413 14.001 3.56348V2.54525C14.001 2.40461 13.8871 2.2907 13.7464 2.2907H5.19679L5.08955 1.24638C5.07619 1.11655 4.96673 1.01791 4.83627 1.01791H4.32716V0.254557C4.32716 0.113914 4.21324 0 4.0726 0C3.93196 0 3.81804 0.113914 3.81804 0.254557V1.01823H3.30893C3.17847 1.01823 3.06901 1.11687 3.05564 1.24669L2.94841 2.29102H1.52671C1.38606 2.29102 1.27215 2.40493 1.27215 2.54557V3.5638C1.27215 3.70444 1.38606 3.81836 1.52671 3.81836H2.79154L2.06064 10.946H1.27215C1.13151 10.946 1.01759 11.0599 1.01759 11.2005V11.9642H0.254557C0.113914 11.9642 0 12.0781 0 12.2188L0 16.0371C0 16.1778 0.113914 16.2917 0.254557 16.2917H16.0371C16.1778 16.2917 16.2917 16.1778 16.2917 16.0371V13.7455C16.2917 13.6048 16.1778 13.4909 16.0371 13.4909ZM5.5729 10.946H4.32747V9.92773H5.46853L5.5729 10.946ZM5.41634 9.41862H4.32779V8.40039H5.31197L5.41634 9.41862ZM4.99855 5.3457L5.10292 6.36457C5.0991 6.36457 5.09496 6.36393 5.09115 6.36393H4.32747V5.3457H4.99855ZM4.32747 4.83659V3.81836H4.84168L4.94605 4.83659H4.32716H4.32747ZM5.09115 6.87305C5.1131 6.87305 5.1341 6.86986 5.15415 6.86477L5.25947 7.89128H4.32747V6.87305H5.09115ZM12.4733 4.32747H11.9642V3.81836H12.4733V4.32747ZM4.32747 1.52734H4.60685L4.68513 2.29102H4.32747V1.52734ZM3.53898 1.52734H3.81836V2.29102H3.46071L3.53898 1.52734ZM1.7819 3.30924V2.80013H13.4915V3.30924H1.7819ZM3.05469 6.36393C3.05087 6.36393 3.04673 6.36425 3.04291 6.36457L3.14728 5.3457H3.81836V6.36393H3.05469ZM3.81836 6.87305V7.89128H2.88636L2.99168 6.86477C3.01205 6.86986 3.03305 6.87305 3.05469 6.87305H3.81836ZM3.19947 4.83659L3.30384 3.81836H3.81804V4.83659H3.19915H3.19947ZM2.83386 8.40039H3.81804V9.41862H2.72949L2.83386 8.40039ZM2.67731 9.92773H3.81836V10.946H2.57294L2.67731 9.92773ZM1.52734 11.4551H6.61849V11.9642H1.52734V11.4551ZM7.89128 15.7826H0.509115V12.4733H7.89128V15.7826ZM10.4368 9.61749L12.2188 9.17202L14.0007 9.61749V10.3656L12.2805 9.93569C12.2401 9.92551 12.1974 9.92551 12.157 9.93569L10.4368 10.3656V9.61749ZM9.50867 11.1222L12.2188 10.4448L14.9288 11.1222L14.0382 13.349C13.9812 13.4012 13.8606 13.4919 13.7461 13.4919C13.6128 13.4919 13.4664 13.3652 13.4266 13.3219C13.3783 13.2682 13.3095 13.2373 13.237 13.2373C13.1644 13.2373 13.0957 13.2682 13.0473 13.3219C13.0152 13.3579 12.8669 13.4919 12.7279 13.4919C12.6362 13.4919 12.5385 13.432 12.4733 13.3805V11.4554C12.4733 11.3148 12.3594 11.2008 12.2188 11.2008C12.0781 11.2008 11.9642 11.3148 11.9642 11.4554V13.3808C11.9006 13.4314 11.8032 13.4919 11.7096 13.4919C11.5763 13.4919 11.4299 13.3652 11.3902 13.3219C11.3418 13.2682 11.2731 13.2373 11.2005 13.2373C11.128 13.2373 11.0592 13.2682 11.0109 13.3219C10.9787 13.3579 10.8305 13.4919 10.6914 13.4919C10.5797 13.4919 10.4588 13.4028 10.3993 13.3487L9.50899 11.1226L9.50867 11.1222ZM15.7826 15.7826H8.40039V13.9564C8.47835 13.9831 8.56363 14.0007 8.65495 14.0007C8.86146 14.0007 9.03933 13.9125 9.16406 13.8256C9.2888 13.9125 9.46667 14.0007 9.67318 14.0007C9.87969 14.0007 10.0576 13.9125 10.1823 13.8256C10.307 13.9125 10.4849 14.0007 10.6914 14.0007C10.8979 14.0007 11.0758 13.9125 11.2005 13.8256C11.3253 13.9125 11.5031 14.0007 11.7096 14.0007C11.9161 14.0007 12.094 13.9125 12.2188 13.8256C12.3435 13.9125 12.5214 14.0007 12.7279 14.0007C12.9344 14.0007 13.1122 13.9125 13.237 13.8256C13.3617 13.9125 13.5396 14.0007 13.7461 14.0007C13.9526 14.0007 14.1305 13.9125 14.2552 13.8256C14.3799 13.9125 14.5578 14.0007 14.7643 14.0007C14.9708 14.0007 15.1487 13.9125 15.2734 13.8256C15.3982 13.9125 15.576 14.0007 15.7826 14.0007V15.7826Z" />
<path d="M16.0371 13.4909H15.7826C15.7784 13.4909 15.774 13.4909 15.7698 13.4909C15.64 13.4833 15.5016 13.3633 15.4631 13.3213C15.4147 13.2675 15.346 13.2367 15.2734 13.2367C15.2009 13.2367 15.1322 13.2675 15.0838 13.3213C15.0517 13.3573 14.9034 13.4912 14.7643 13.4912C14.6937 13.4912 14.6195 13.4556 14.5594 13.4158L15.5095 11.0401C15.5369 10.9721 15.5334 10.8951 15.5 10.8298C15.4666 10.7643 15.4064 10.7165 15.3352 10.6987L14.5098 10.4922V9.4183C14.5098 9.30152 14.4302 9.1997 14.3169 9.17138L12.2805 8.66227C12.2401 8.65208 12.1974 8.65208 12.157 8.66227L10.1206 9.17138C10.0073 9.1997 9.92773 9.30152 9.92773 9.4183V10.4922L9.10233 10.6987C9.03106 10.7165 8.97092 10.7643 8.93751 10.8298C8.9041 10.8954 8.90059 10.9721 8.92796 11.0401L9.87841 13.4161C9.81891 13.4556 9.74509 13.4912 9.6735 13.4912C9.54017 13.4912 9.3938 13.3646 9.35403 13.3213C9.30566 13.2675 9.23693 13.2367 9.16438 13.2367C9.09183 13.2367 9.0231 13.2675 8.97473 13.3213C8.9426 13.3573 8.79432 13.4912 8.65527 13.4912C8.56363 13.4912 8.46594 13.4314 8.40071 13.3798V12.2184C8.40071 12.0778 8.28679 11.9639 8.14615 11.9639H7.12792V11.2002C7.12792 11.0596 7.01401 10.9456 6.87336 10.9456H6.08487L5.35398 3.81804H11.4554V4.58171C11.4554 4.72236 11.5693 4.83627 11.71 4.83627H11.9645V6.10906C11.9645 6.46894 12.1548 6.65922 12.2935 6.79827C12.4183 6.923 12.4736 6.98442 12.4736 7.12729C12.4736 7.27016 12.3594 7.38184 12.2191 7.38184C12.0787 7.38184 11.9645 7.26761 11.9645 7.12729C11.9645 6.98696 11.8506 6.87273 11.71 6.87273C11.5693 6.87273 11.4554 6.98664 11.4554 7.12729C11.4554 7.54826 11.7981 7.89096 12.2191 7.89096C12.64 7.89096 12.9827 7.54826 12.9827 7.12729C12.9827 6.76741 12.7925 6.57712 12.6537 6.43807C12.529 6.31334 12.4736 6.25193 12.4736 6.10906V4.83627H12.7282C12.8688 4.83627 12.9827 4.72236 12.9827 4.58171V3.81804H13.7464C13.8871 3.81804 14.001 3.70413 14.001 3.56348V2.54525C14.001 2.40461 13.8871 2.2907 13.7464 2.2907H5.19679L5.08955 1.24638C5.07619 1.11655 4.96673 1.01791 4.83627 1.01791H4.32716V0.254557C4.32716 0.113914 4.21324 0 4.0726 0C3.93196 0 3.81804 0.113914 3.81804 0.254557V1.01823H3.30893C3.17847 1.01823 3.06901 1.11687 3.05564 1.24669L2.94841 2.29102H1.52671C1.38606 2.29102 1.27215 2.40493 1.27215 2.54557V3.5638C1.27215 3.70444 1.38606 3.81836 1.52671 3.81836H2.79154L2.06064 10.946H1.27215C1.13151 10.946 1.01759 11.0599 1.01759 11.2005V11.9642H0.254557C0.113914 11.9642 0 12.0781 0 12.2188L0 16.0371C0 16.1778 0.113914 16.2917 0.254557 16.2917H16.0371C16.1778 16.2917 16.2917 16.1778 16.2917 16.0371V13.7455C16.2917 13.6048 16.1778 13.4909 16.0371 13.4909ZM5.5729 10.946H4.32747V9.92773H5.46853L5.5729 10.946ZM5.41634 9.41862H4.32779V8.40039H5.31197L5.41634 9.41862ZM4.99855 5.3457L5.10292 6.36457C5.0991 6.36457 5.09496 6.36393 5.09115 6.36393H4.32747V5.3457H4.99855ZM4.32747 4.83659V3.81836H4.84168L4.94605 4.83659H4.32716H4.32747ZM5.09115 6.87305C5.1131 6.87305 5.1341 6.86986 5.15415 6.86477L5.25947 7.89128H4.32747V6.87305H5.09115ZM12.4733 4.32747H11.9642V3.81836H12.4733V4.32747ZM4.32747 1.52734H4.60685L4.68513 2.29102H4.32747V1.52734ZM3.53898 1.52734H3.81836V2.29102H3.46071L3.53898 1.52734ZM1.7819 3.30924V2.80013H13.4915V3.30924H1.7819ZM3.05469 6.36393C3.05087 6.36393 3.04673 6.36425 3.04291 6.36457L3.14728 5.3457H3.81836V6.36393H3.05469ZM3.81836 6.87305V7.89128H2.88636L2.99168 6.86477C3.01205 6.86986 3.03305 6.87305 3.05469 6.87305H3.81836ZM3.19947 4.83659L3.30384 3.81836H3.81804V4.83659H3.19915H3.19947ZM2.83386 8.40039H3.81804V9.41862H2.72949L2.83386 8.40039ZM2.67731 9.92773H3.81836V10.946H2.57294L2.67731 9.92773ZM1.52734 11.4551H6.61849V11.9642H1.52734V11.4551ZM7.89128 15.7826H0.509115V12.4733H7.89128V15.7826ZM10.4368 9.61749L12.2188 9.17202L14.0007 9.61749V10.3656L12.2805 9.93569C12.2401 9.92551 12.1974 9.92551 12.157 9.93569L10.4368 10.3656V9.61749ZM9.50867 11.1222L12.2188 10.4448L14.9288 11.1222L14.0382 13.349C13.9812 13.4012 13.8606 13.4919 13.7461 13.4919C13.6128 13.4919 13.4664 13.3652 13.4266 13.3219C13.3783 13.2682 13.3095 13.2373 13.237 13.2373C13.1644 13.2373 13.0957 13.2682 13.0473 13.3219C13.0152 13.3579 12.8669 13.4919 12.7279 13.4919C12.6362 13.4919 12.5385 13.432 12.4733 13.3805V11.4554C12.4733 11.3148 12.3594 11.2008 12.2188 11.2008C12.0781 11.2008 11.9642 11.3148 11.9642 11.4554V13.3808C11.9006 13.4314 11.8032 13.4919 11.7096 13.4919C11.5763 13.4919 11.4299 13.3652 11.3902 13.3219C11.3418 13.2682 11.2731 13.2373 11.2005 13.2373C11.128 13.2373 11.0592 13.2682 11.0109 13.3219C10.9787 13.3579 10.8305 13.4919 10.6914 13.4919C10.5797 13.4919 10.4588 13.4028 10.3993 13.3487L9.50899 11.1226L9.50867 11.1222ZM15.7826 15.7826H8.40039V13.9564C8.47835 13.9831 8.56363 14.0007 8.65495 14.0007C8.86146 14.0007 9.03933 13.9125 9.16406 13.8256C9.2888 13.9125 9.46667 14.0007 9.67318 14.0007C9.87969 14.0007 10.0576 13.9125 10.1823 13.8256C10.307 13.9125 10.4849 14.0007 10.6914 14.0007C10.8979 14.0007 11.0758 13.9125 11.2005 13.8256C11.3253 13.9125 11.5031 14.0007 11.7096 14.0007C11.9161 14.0007 12.094 13.9125 12.2188 13.8256C12.3435 13.9125 12.5214 14.0007 12.7279 14.0007C12.9344 14.0007 13.1122 13.9125 13.237 13.8256C13.3617 13.9125 13.5396 14.0007 13.7461 14.0007C13.9526 14.0007 14.1305 13.9125 14.2552 13.8256C14.3799 13.9125 14.5578 14.0007 14.7643 14.0007C14.9708 14.0007 15.1487 13.9125 15.2734 13.8256C15.3982 13.9125 15.576 14.0007 15.7826 14.0007V15.7826Z"  stroke-width="0.2" mask="url(#path-1-outside-1_2718_272)"/>
</svg>
