<svg width="20" height="20" viewBox="0 0 20 20" fill="none" xmlns="http://www.w3.org/2000/svg">
<g clip-path="url(#clip0_2718_15355)">
<path d="M5.25 7.90625H4.1875C4.0466 7.90625 3.91148 7.96222 3.81185 8.06185C3.71222 8.16148 3.65625 8.2966 3.65625 8.4375C3.65625 8.5784 3.71222 8.71352 3.81185 8.81315C3.91148 8.91278 4.0466 8.96875 4.1875 8.96875H5.25C5.3909 8.96875 5.52602 8.91278 5.62565 8.81315C5.72528 8.71352 5.78125 8.5784 5.78125 8.4375C5.78125 8.2966 5.72528 8.16148 5.62565 8.06185C5.52602 7.96222 5.3909 7.90625 5.25 7.90625Z" fill="black"/>
<path d="M5.25 4.1875H4.1875C4.0466 4.1875 3.91148 4.24347 3.81185 4.3431C3.71222 4.44273 3.65625 4.57785 3.65625 4.71875C3.65625 4.85965 3.71222 4.99477 3.81185 5.0944C3.91148 5.19403 4.0466 5.25 4.1875 5.25H5.25C5.3909 5.25 5.52602 5.19403 5.62565 5.0944C5.72528 4.99477 5.78125 4.85965 5.78125 4.71875C5.78125 4.57785 5.72528 4.44273 5.62565 4.3431C5.52602 4.24347 5.3909 4.1875 5.25 4.1875Z" fill="black"/>
<path d="M8.4375 8.96875H9.5C9.6409 8.96875 9.77602 8.91278 9.87565 8.81315C9.97528 8.71352 10.0312 8.5784 10.0312 8.4375C10.0312 8.2966 9.97528 8.16148 9.87565 8.06185C9.77602 7.96222 9.6409 7.90625 9.5 7.90625H8.4375C8.2966 7.90625 8.16148 7.96222 8.06185 8.06185C7.96222 8.16148 7.90625 8.2966 7.90625 8.4375C7.90625 8.5784 7.96222 8.71352 8.06185 8.81315C8.16148 8.91278 8.2966 8.96875 8.4375 8.96875Z" fill="black"/>
<path d="M17.4688 10.0312H11.625V6.84375C11.625 6.70285 11.569 6.56773 11.4694 6.4681C11.3698 6.36847 11.2346 6.3125 11.0938 6.3125H7.375V3.125C7.375 2.9841 7.31903 2.84898 7.2194 2.74935C7.11977 2.64972 6.98465 2.59375 6.84375 2.59375H2.59375C2.45285 2.59375 2.31773 2.64972 2.2181 2.74935C2.11847 2.84898 2.0625 2.9841 2.0625 3.125V10.0312H1.53125C1.39035 10.0312 1.25523 10.0872 1.1556 10.1868C1.05597 10.2865 1 10.4216 1 10.5625C1 12.2163 1.77722 15.3438 4.71875 15.3438H14.8125C17.9639 15.3438 18 10.7577 18 10.5625C18 10.4216 17.944 10.2865 17.8444 10.1868C17.7448 10.0872 17.6096 10.0312 17.4688 10.0312ZM10.5625 10.0312H7.375V7.375H10.5625V10.0312ZM3.125 3.65625H6.3125V6.3125H3.125V3.65625ZM3.125 7.375H6.3125V10.0312H3.125V7.375ZM14.8125 14.2812H4.71875C4.33061 14.2906 3.94688 14.1972 3.60639 14.0107C3.2659 13.8241 2.98072 13.5509 2.77969 13.2188H10.5625C10.7034 13.2188 10.8385 13.1628 10.9382 13.0632C11.0378 12.9635 11.0938 12.8284 11.0938 12.6875C11.0938 12.5466 11.0378 12.4115 10.9382 12.3118C10.8385 12.2122 10.7034 12.1562 10.5625 12.1562H2.30581C2.20546 11.8088 2.13551 11.4533 2.09677 11.0938H16.9062C16.8728 11.4515 16.8147 11.8065 16.7322 12.1562H13.75C13.6091 12.1562 13.474 12.2122 13.3743 12.3118C13.2747 12.4115 13.2188 12.5466 13.2188 12.6875C13.2188 12.8284 13.2747 12.9635 13.3743 13.0632C13.474 13.1628 13.6091 13.2188 13.75 13.2188H16.3491C16.0344 13.8172 15.5539 14.2812 14.8125 14.2812Z" fill="black"/>
<path d="M14.8125 7.375C15.4429 7.375 16.0592 7.18806 16.5834 6.83781C17.1076 6.48756 17.5161 5.98974 17.7574 5.4073C17.9986 4.82487 18.0617 4.18397 17.9388 3.56565C17.8158 2.94734 17.5122 2.37938 17.0664 1.9336C16.6206 1.48782 16.0527 1.18424 15.4344 1.06125C14.816 0.938258 14.1751 1.00138 13.5927 1.24264C13.0103 1.48389 12.5124 1.89244 12.1622 2.41662C11.8119 2.9408 11.625 3.55707 11.625 4.1875C11.6259 5.0326 11.962 5.84282 12.5596 6.44039C13.1572 7.03797 13.9674 7.37409 14.8125 7.375ZM14.8125 2.0625C15.2328 2.0625 15.6436 2.18713 15.9931 2.42063C16.3425 2.65413 16.6149 2.98601 16.7757 3.3743C16.9366 3.76259 16.9787 4.18986 16.8967 4.60207C16.8147 5.01428 16.6123 5.39292 16.3151 5.6901C16.0179 5.98729 15.6393 6.18968 15.2271 6.27167C14.8149 6.35366 14.3876 6.31158 13.9993 6.15074C13.611 5.98991 13.2791 5.71754 13.0456 5.36809C12.8121 5.01863 12.6875 4.60779 12.6875 4.1875C12.6881 3.62411 12.9122 3.08398 13.3106 2.6856C13.709 2.28722 14.2491 2.06313 14.8125 2.0625Z" fill="black"/>
<path d="M13.75 4.71875H14.8125C14.9534 4.71875 15.0885 4.66278 15.1882 4.56315C15.2878 4.46352 15.3438 4.3284 15.3438 4.1875V3.125C15.3438 2.9841 15.2878 2.84898 15.1882 2.74935C15.0885 2.64972 14.9534 2.59375 14.8125 2.59375C14.6716 2.59375 14.5365 2.64972 14.4368 2.74935C14.3372 2.84898 14.2812 2.9841 14.2812 3.125V3.65625H13.75C13.6091 3.65625 13.474 3.71222 13.3743 3.81185C13.2747 3.91148 13.2188 4.0466 13.2188 4.1875C13.2188 4.3284 13.2747 4.46352 13.3743 4.56315C13.474 4.66278 13.6091 4.71875 13.75 4.71875Z" fill="black"/>
<path d="M17.4688 16.9375C17.2933 16.9374 17.1206 16.8939 16.9661 16.8109C16.8116 16.7278 16.68 16.6078 16.5832 16.4615C16.5347 16.3885 16.4689 16.3286 16.3917 16.2872C16.3145 16.2458 16.2282 16.2242 16.1406 16.2242C16.053 16.2242 15.9668 16.2458 15.8895 16.2872C15.8123 16.3286 15.7466 16.3885 15.6981 16.4615C15.6012 16.6077 15.4696 16.7276 15.3151 16.8105C15.1605 16.8935 14.9879 16.9369 14.8125 16.9369C14.6371 16.9369 14.4645 16.8935 14.3099 16.8105C14.1554 16.7276 14.0238 16.6077 13.9269 16.4615C13.8784 16.3885 13.8127 16.3286 13.7355 16.2872C13.6582 16.2458 13.572 16.2242 13.4844 16.2242C13.3968 16.2242 13.3105 16.2458 13.2333 16.2872C13.1561 16.3286 13.0903 16.3885 13.0418 16.4615C12.9449 16.6077 12.8134 16.7276 12.6588 16.8105C12.5043 16.8935 12.3316 16.9369 12.1562 16.9369C11.9809 16.9369 11.8082 16.8935 11.6537 16.8105C11.4991 16.7276 11.3676 16.6077 11.2707 16.4615C11.2222 16.3885 11.1564 16.3286 11.0792 16.2872C11.002 16.2458 10.9157 16.2242 10.8281 16.2242C10.7405 16.2242 10.6543 16.2458 10.577 16.2872C10.4998 16.3286 10.4341 16.3885 10.3856 16.4615C10.2887 16.6077 10.1571 16.7276 10.0026 16.8105C9.84805 16.8935 9.67539 16.9369 9.5 16.9369C9.32461 16.9369 9.15195 16.8935 8.99742 16.8105C8.8429 16.7276 8.71131 16.6077 8.61441 16.4615C8.56593 16.3885 8.50016 16.3286 8.42295 16.2872C8.34574 16.2458 8.25949 16.2242 8.17188 16.2242C8.08426 16.2242 7.99801 16.2458 7.9208 16.2872C7.84359 16.3286 7.77782 16.3885 7.72934 16.4615C7.63244 16.6077 7.50085 16.7276 7.34633 16.8105C7.1918 16.8935 7.01914 16.9369 6.84375 16.9369C6.66836 16.9369 6.4957 16.8935 6.34117 16.8105C6.18665 16.7276 6.05506 16.6077 5.95816 16.4615C5.90968 16.3885 5.84391 16.3286 5.7667 16.2872C5.68949 16.2458 5.60324 16.2242 5.51562 16.2242C5.42801 16.2242 5.34176 16.2458 5.26455 16.2872C5.18734 16.3286 5.12157 16.3885 5.07309 16.4615C4.97619 16.6077 4.8446 16.7276 4.69008 16.8105C4.53555 16.8935 4.36289 16.9369 4.1875 16.9369C4.01211 16.9369 3.83945 16.8935 3.68492 16.8105C3.5304 16.7276 3.39881 16.6077 3.30191 16.4615C3.25343 16.3885 3.18766 16.3286 3.11045 16.2872C3.03324 16.2458 2.94699 16.2242 2.85938 16.2242C2.77176 16.2242 2.68551 16.2458 2.6083 16.2872C2.53109 16.3286 2.46532 16.3885 2.41684 16.4615C2.32 16.6078 2.18844 16.7278 2.03391 16.8109C1.87938 16.8939 1.70669 16.9374 1.53125 16.9375C1.39035 16.9375 1.25523 16.9934 1.1556 17.0931C1.05597 17.1927 1 17.3278 1 17.4687C1 17.6096 1.05597 17.7447 1.1556 17.8444C1.25523 17.944 1.39035 18 1.53125 18C2.01414 18.0004 2.4827 17.836 2.85938 17.5338C3.23627 17.8356 3.70469 18 4.1875 18C4.67031 18 5.13873 17.8356 5.51562 17.5338C5.89252 17.8356 6.36094 18 6.84375 18C7.32656 18 7.79498 17.8356 8.17188 17.5338C8.54877 17.8356 9.01719 18 9.5 18C9.98281 18 10.4512 17.8356 10.8281 17.5338C11.205 17.8356 11.6734 18 12.1562 18C12.6391 18 13.1075 17.8356 13.4844 17.5338C13.8613 17.8356 14.3297 18 14.8125 18C15.2953 18 15.7637 17.8356 16.1406 17.5338C16.5173 17.836 16.9859 18.0004 17.4688 18C17.6096 18 17.7448 17.944 17.8444 17.8444C17.944 17.7447 18 17.6096 18 17.4687C18 17.3278 17.944 17.1927 17.8444 17.0931C17.7448 16.9934 17.6096 16.9375 17.4688 16.9375Z" fill="black"/>
<path d="M11.7775 12.3129C11.7035 12.3874 11.6532 12.4821 11.633 12.5851C11.6128 12.6881 11.6235 12.7948 11.6639 12.8917C11.7042 12.9886 11.7724 13.0714 11.8597 13.1296C11.9471 13.1878 12.0497 13.2188 12.1547 13.2187C12.2598 13.219 12.3626 13.1881 12.4501 13.1298C12.5375 13.0715 12.6056 12.9886 12.6458 12.8914C12.686 12.7943 12.6963 12.6875 12.6756 12.5844C12.6548 12.4814 12.6039 12.3869 12.5292 12.3129C12.4276 12.217 12.2932 12.1635 12.1534 12.1635C12.0136 12.1635 11.8792 12.217 11.7775 12.3129Z" fill="black"/>
</g>
<defs>
<clipPath id="clip0_2718_15355">
<rect width="20" height="20" fill="white"/>
</clipPath>
</defs>
</svg>
