<svg width="371" height="28" viewBox="0 0 371 28" fill="none" xmlns="http://www.w3.org/2000/svg">
<path d="M2.622 22V5.9H9.177C10.8943 5.9 12.397 6.245 13.685 6.935C14.9883 7.60967 16.0003 8.55267 16.721 9.764C17.4417 10.9753 17.802 12.3707 17.802 13.95C17.802 15.5293 17.4417 16.9247 16.721 18.136C16.0003 19.3473 14.9883 20.298 13.685 20.988C12.397 21.6627 10.8943 22 9.177 22H2.622ZM4.324 20.528H9.085C10.511 20.528 11.7453 20.252 12.788 19.7C13.846 19.1327 14.6663 18.3583 15.249 17.377C15.8317 16.3803 16.123 15.238 16.123 13.95C16.123 12.6467 15.8317 11.5043 15.249 10.523C14.6663 9.54167 13.846 8.775 12.788 8.223C11.7453 7.65567 10.511 7.372 9.085 7.372H4.324V20.528ZM25.442 13.099H33.952V14.548H25.442V13.099ZM25.626 20.528H35.309V22H23.924V5.9H34.964V7.372H25.626V20.528ZM44.7377 22V7.372H39.0797V5.9H52.0977V7.372H46.4397V22H44.7377ZM58.6347 13.099H67.1447V14.548H58.6347V13.099ZM58.8187 20.528H68.5017V22H57.1167V5.9H68.1567V7.372H58.8187V20.528ZM74.8025 22V5.9H76.2055L87.3145 19.884H86.5785V5.9H88.2575V22H86.8545L75.7685 8.016H76.5045V22H74.8025ZM98.9404 22V7.372H93.2824V5.9H106.3V7.372H100.642V22H98.9404ZM111.319 22V5.9H113.021V22H111.319ZM127.598 22.138C126.387 22.138 125.26 21.9387 124.217 21.54C123.19 21.126 122.293 20.551 121.526 19.815C120.775 19.0637 120.184 18.1973 119.755 17.216C119.341 16.2193 119.134 15.1307 119.134 13.95C119.134 12.7693 119.341 11.6883 119.755 10.707C120.184 9.71033 120.775 8.844 121.526 8.108C122.293 7.35667 123.19 6.78167 124.217 6.383C125.244 5.969 126.371 5.762 127.598 5.762C128.809 5.762 129.929 5.969 130.956 6.383C131.983 6.78167 132.873 7.349 133.624 8.085C134.391 8.821 134.981 9.68733 135.395 10.684C135.824 11.6807 136.039 12.7693 136.039 13.95C136.039 15.1307 135.824 16.2193 135.395 17.216C134.981 18.2127 134.391 19.079 133.624 19.815C132.873 20.551 131.983 21.126 130.956 21.54C129.929 21.9387 128.809 22.138 127.598 22.138ZM127.598 20.62C128.564 20.62 129.453 20.459 130.266 20.137C131.094 19.7997 131.807 19.332 132.405 18.734C133.018 18.1207 133.494 17.4153 133.831 16.618C134.168 15.8053 134.337 14.916 134.337 13.95C134.337 12.984 134.168 12.1023 133.831 11.305C133.494 10.4923 133.018 9.787 132.405 9.189C131.807 8.57567 131.094 8.108 130.266 7.786C129.453 7.44867 128.564 7.28 127.598 7.28C126.632 7.28 125.735 7.44867 124.907 7.786C124.079 8.108 123.358 8.57567 122.745 9.189C122.147 9.787 121.672 10.4923 121.319 11.305C120.982 12.1023 120.813 12.984 120.813 13.95C120.813 14.9007 120.982 15.7823 121.319 16.595C121.672 17.4077 122.147 18.1207 122.745 18.734C123.358 19.332 124.079 19.7997 124.907 20.137C125.735 20.459 126.632 20.62 127.598 20.62ZM142.154 22V5.9H143.557L154.666 19.884H153.93V5.9H155.609V22H154.206L143.12 8.016H143.856V22H142.154Z" fill="white"/>
<path d="M197.622 22V5.9H204.177C205.894 5.9 207.397 6.245 208.685 6.935C209.988 7.60967 211 8.55267 211.721 9.764C212.442 10.9753 212.802 12.3707 212.802 13.95C212.802 15.5293 212.442 16.9247 211.721 18.136C211 19.3473 209.988 20.298 208.685 20.988C207.397 21.6627 205.894 22 204.177 22H197.622ZM199.324 20.528H204.085C205.511 20.528 206.745 20.252 207.788 19.7C208.846 19.1327 209.666 18.3583 210.249 17.377C210.832 16.3803 211.123 15.238 211.123 13.95C211.123 12.6467 210.832 11.5043 210.249 10.523C209.666 9.54167 208.846 8.775 207.788 8.223C206.745 7.65567 205.511 7.372 204.085 7.372H199.324V20.528ZM220.442 13.099H228.952V14.548H220.442V13.099ZM220.626 20.528H230.309V22H218.924V5.9H229.964V7.372H220.626V20.528ZM236.61 22V5.9H238.013L245.373 18.458H244.637L251.928 5.9H253.331V22H251.698V8.453H252.089L245.373 19.953H244.568L237.806 8.453H238.243V22H236.61ZM267.362 22.138C265.308 22.138 263.69 21.5477 262.509 20.367C261.329 19.1863 260.738 17.4383 260.738 15.123V5.9H262.44V15.054C262.44 16.9553 262.87 18.3583 263.728 19.263C264.587 20.1677 265.798 20.62 267.362 20.62C268.942 20.62 270.161 20.1677 271.019 19.263C271.878 18.3583 272.307 16.9553 272.307 15.054V5.9H273.963V15.123C273.963 17.4383 273.373 19.1863 272.192 20.367C271.027 21.5477 269.417 22.138 267.362 22.138ZM281.392 22V5.9H287.418C288.783 5.9 289.956 6.12233 290.937 6.567C291.919 6.99633 292.67 7.625 293.191 8.453C293.728 9.26567 293.996 10.2547 293.996 11.42C293.996 12.5547 293.728 13.536 293.191 14.364C292.67 15.1767 291.919 15.8053 290.937 16.25C289.956 16.6793 288.783 16.894 287.418 16.894H282.335L283.094 16.112V22H281.392ZM292.386 22L288.246 16.158H290.086L294.249 22H292.386ZM283.094 16.25L282.335 15.445H287.372C288.982 15.445 290.201 15.0923 291.029 14.387C291.873 13.6817 292.294 12.6927 292.294 11.42C292.294 10.132 291.873 9.13533 291.029 8.43C290.201 7.72467 288.982 7.372 287.372 7.372H282.335L283.094 6.567V16.25ZM300.313 22V5.9H306.339C307.704 5.9 308.877 6.12233 309.858 6.567C310.84 6.99633 311.591 7.625 312.112 8.453C312.649 9.26567 312.917 10.2547 312.917 11.42C312.917 12.5547 312.649 13.536 312.112 14.364C311.591 15.1767 310.84 15.8053 309.858 16.25C308.877 16.6793 307.704 16.894 306.339 16.894H301.256L302.015 16.112V22H300.313ZM311.307 22L307.167 16.158H309.007L313.17 22H311.307ZM302.015 16.25L301.256 15.445H306.293C307.903 15.445 309.122 15.0923 309.95 14.387C310.794 13.6817 311.215 12.6927 311.215 11.42C311.215 10.132 310.794 9.13533 309.95 8.43C309.122 7.72467 307.903 7.372 306.293 7.372H301.256L302.015 6.567V16.25ZM316.659 22L324.019 5.9H325.698L333.058 22H331.264L324.502 6.889H325.192L318.43 22H316.659ZM319.557 17.699L320.063 16.319H329.424L329.93 17.699H319.557ZM344.857 22.138C343.631 22.138 342.496 21.9387 341.453 21.54C340.426 21.126 339.529 20.551 338.762 19.815C338.011 19.079 337.421 18.2127 336.991 17.216C336.577 16.2193 336.37 15.1307 336.37 13.95C336.37 12.7693 336.577 11.6807 336.991 10.684C337.421 9.68733 338.019 8.821 338.785 8.085C339.552 7.349 340.449 6.78167 341.476 6.383C342.519 5.969 343.654 5.762 344.88 5.762C346.107 5.762 347.226 5.95367 348.238 6.337C349.266 6.72033 350.14 7.303 350.86 8.085L349.802 9.166C349.128 8.49133 348.384 8.00833 347.571 7.717C346.759 7.42567 345.885 7.28 344.949 7.28C343.953 7.28 343.033 7.44867 342.189 7.786C341.361 8.108 340.633 8.57567 340.004 9.189C339.391 9.787 338.908 10.4923 338.555 11.305C338.218 12.1023 338.049 12.984 338.049 13.95C338.049 14.9007 338.218 15.7823 338.555 16.595C338.908 17.4077 339.391 18.1207 340.004 18.734C340.633 19.332 341.361 19.7997 342.189 20.137C343.033 20.459 343.945 20.62 344.926 20.62C345.846 20.62 346.713 20.482 347.525 20.206C348.353 19.93 349.112 19.4623 349.802 18.803L350.768 20.091C350.002 20.7657 349.105 21.2793 348.077 21.632C347.05 21.9693 345.977 22.138 344.857 22.138ZM349.135 19.884V13.95H350.768V20.091L349.135 19.884ZM359.403 13.099H367.913V14.548H359.403V13.099ZM359.587 20.528H369.27V22H357.885V5.9H368.925V7.372H359.587V20.528Z" fill="white"/>
<path d="M181.033 23.625V13.4225H182.764V23.625H181.033ZM176.798 19.3894V17.6581H187V19.3894H176.798Z" fill="white"/>
<path d="M172.611 15.2025V5H174.342V15.2025H172.611ZM168.375 10.9669V9.23557H178.577V10.9669H168.375Z" fill="white"/>
</svg>
