<svg width="19" height="20" viewBox="0 0 19 20" fill="none" xmlns="http://www.w3.org/2000/svg">
<path d="M18.7861 18.2619L17.1575 16.6325C16.8668 16.3491 16.5385 16.1058 16.1819 15.9111L17.6449 12.0587C17.954 11.2394 17.5964 10.3186 16.8165 9.92272L15.0992 9.02479V5.12401C15.1386 4.22974 14.4519 3.46897 13.5585 3.41684H13.1488V2.19796C13.1434 1.25706 12.3826 0.496285 11.4417 0.490784H7.54089C6.59999 0.49627 5.83922 1.25703 5.83372 2.19796V3.41684H5.42407C4.53071 3.46896 3.844 4.22974 3.88333 5.12401V9.02573L2.14689 9.88435V9.88344C1.36601 10.2803 1.00938 11.2002 1.31753 12.0195L2.78056 15.8718C2.42486 16.0675 2.09658 16.3098 1.80581 16.5941L0.196476 18.262C-0.0723461 18.55 -0.0641298 18.999 0.21385 19.2779C0.492738 19.5558 0.941711 19.5641 1.22973 19.2952L2.85917 17.6667C3.39225 17.1318 4.08902 16.7907 4.83882 16.6984C5.58861 16.6069 6.34756 16.7688 6.99403 17.1592C7.74932 17.61 8.61251 17.8469 9.49124 17.8469C10.37 17.8469 11.2332 17.61 11.9885 17.1592C12.6349 16.7688 13.3939 16.6069 14.1437 16.6984C14.8935 16.7907 15.5902 17.1318 16.1233 17.6667L17.7518 19.2952H17.7528C18.0381 19.5805 18.5007 19.5805 18.786 19.2952C19.0713 19.0099 19.0714 18.5472 18.7861 18.2619ZM7.29674 2.19791C7.29674 2.06258 7.40555 1.95376 7.54089 1.95376H11.4426H11.4417C11.5066 1.95376 11.5688 1.97937 11.6145 2.02509C11.6602 2.07081 11.6858 2.13299 11.6858 2.19791V3.41678H7.29676L7.29674 2.19791ZM8.75977 16.3015C8.41595 16.2201 8.08586 16.0857 7.78411 15.901C6.69964 15.2518 5.40394 15.0561 4.17593 15.3551L2.66354 11.5412C2.62056 11.426 2.67085 11.2952 2.78058 11.2394L8.73966 8.25484L8.75977 16.3015ZM8.75977 6.63545L5.34635 8.33256V5.12397C5.34269 5.03618 5.37104 4.94932 5.42408 4.87982H13.5393C13.6097 4.94017 13.6463 5.03161 13.6362 5.12397V8.33256L10.2521 6.63545C9.77202 6.40136 9.21059 6.40136 8.73053 6.63545H8.75977ZM14.8752 15.3551C13.6472 15.0634 12.3534 15.2591 11.2661 15.901C10.9644 16.0857 10.6352 16.2201 10.2914 16.3015V8.25482L16.2504 11.2394C16.3602 11.2952 16.4105 11.4259 16.3675 11.5412L14.8752 15.3551Z" fill="black"/>
</svg>
