<svg width="500" height="500" viewBox="0 0 500 500" fill="none" xmlns="http://www.w3.org/2000/svg">
<path d="M43.6594 199.204C20.0787 330.157 177.829 246.491 228.734 256.839C265.261 264.257 301.788 332.916 351.457 334.793C403.643 336.773 443.456 286.452 449.809 241.157C459.424 172.704 363.751 36.657 279.776 49.9011C216.085 59.9401 225.78 150.108 166.233 168.949C128.79 180.694 56.4915 127.843 43.6594 199.204Z" fill="#2D74FE"/>
<path opacity="0.9" d="M43.6594 199.204C20.0787 330.157 177.829 246.491 228.734 256.839C265.261 264.257 301.788 332.916 351.457 334.793C403.643 336.773 443.456 286.452 449.809 241.157C459.424 172.704 363.751 36.657 279.776 49.9011C216.085 59.9401 225.78 150.108 166.233 168.949C128.79 180.694 56.4915 127.843 43.6594 199.204Z" fill="#EFF4FF"/>
<path d="M249.945 450.533C372.522 450.533 471.89 444.732 471.89 437.575C471.89 430.419 372.522 424.617 249.945 424.617C127.368 424.617 28 430.419 28 437.575C28 444.732 127.368 450.533 249.945 450.533Z" fill="#E3E0E4"/>
<path d="M37.9914 272.558L36.8317 272.693L38.8925 290.316L40.0522 290.18L37.9914 272.558Z" fill="#2D74FE"/>
<path d="M40.8207 296.735L39.661 296.87L40.7007 305.761L41.8604 305.626L40.8207 296.735Z" fill="#2D74FE"/>
<path d="M117.836 236.624L116.462 232.766C115.517 230.115 113.701 227.863 111.309 226.378C108.918 224.893 106.093 224.264 103.298 224.593L48.5931 230.992C45.3159 231.376 42.3257 233.047 40.2799 235.635C38.2341 238.224 37.3004 241.52 37.6841 244.797L53.252 377.925C53.3812 379.039 53.7287 380.116 54.2746 381.095C54.8205 382.074 55.554 382.935 56.4332 383.631C57.3125 384.326 58.3202 384.841 59.3987 385.147C60.4772 385.452 61.6053 385.542 62.7186 385.411L258.462 362.517C259.577 362.391 260.657 362.045 261.638 361.501C262.62 360.956 263.484 360.223 264.182 359.344C264.88 358.464 265.397 357.455 265.704 356.376C266.011 355.296 266.101 354.166 265.971 353.051L252.463 237.963C252.202 235.717 251.059 233.666 249.286 232.262C247.513 230.858 245.255 230.216 243.008 230.477L129.34 243.778C126.896 244.061 124.428 243.508 122.339 242.209C120.25 240.909 118.663 238.941 117.836 236.624Z" fill="#2D74FE"/>
<path d="M123.298 178.731L61.4528 191.055L78.4324 276.262L140.278 263.938L123.298 178.731Z" fill="white"/>
<path d="M62.0409 191.448L122.905 179.319L139.69 263.546L78.8251 275.674L62.0409 191.448Z" stroke="#1F51B2" stroke-opacity="0.7"/>
<g opacity="0.4">
<path d="M115.043 199.204L76.9472 206.805C76.0597 206.977 75.1401 206.792 74.3879 206.291C73.6357 205.789 73.1116 205.011 72.9293 204.126C72.757 203.239 72.9417 202.319 73.4431 201.567C73.9446 200.815 74.7224 200.29 75.6079 200.108L113.726 192.542C114.614 192.369 115.533 192.554 116.285 193.055C117.038 193.557 117.562 194.335 117.744 195.22C117.906 196.106 117.713 197.019 117.208 197.764C116.703 198.51 115.925 199.026 115.043 199.204Z" fill="#2D74FE"/>
<path d="M117.847 213.318L79.7517 220.953C78.8659 221.122 77.9493 220.936 77.1997 220.435C76.4501 219.933 75.9277 219.157 75.7452 218.274C75.5763 217.389 75.7625 216.472 76.2637 215.722C76.7649 214.973 77.5408 214.45 78.4238 214.268L116.519 206.679C117.405 206.51 118.322 206.696 119.071 207.197C119.821 207.698 120.343 208.474 120.526 209.357C120.681 210.236 120.489 211.141 119.989 211.88C119.489 212.62 118.721 213.135 117.847 213.318Z" fill="#2D74FE"/>
<path d="M120.652 227.409L82.5562 234.998C81.6704 235.167 80.7538 234.981 80.0042 234.48C79.2546 233.979 78.7322 233.203 78.5498 232.32C78.3808 231.434 78.5671 230.517 79.0682 229.768C79.5694 229.018 80.3453 228.496 81.2283 228.313L119.324 220.713C120.21 220.544 121.126 220.73 121.876 221.231C122.625 221.732 123.148 222.508 123.33 223.391C123.502 224.279 123.318 225.198 122.816 225.95C122.315 226.703 121.537 227.227 120.652 227.409Z" fill="#2D74FE"/>
<path d="M123.468 241.558L85.3721 249.147C84.4847 249.319 83.5651 249.134 82.8129 248.633C82.0607 248.132 81.5366 247.354 81.3543 246.468C81.182 245.581 81.3666 244.661 81.8681 243.909C82.3696 243.157 83.1474 242.633 84.0328 242.45L122.128 234.861C123.016 234.689 123.935 234.873 124.688 235.375C125.44 235.876 125.964 236.654 126.146 237.54C126.318 238.427 126.134 239.347 125.632 240.099C125.131 240.851 124.353 241.375 123.468 241.558Z" fill="#2D74FE"/>
<path d="M115.855 257.663L88.1767 263.181C87.2909 263.35 86.3743 263.163 85.6246 262.662C84.875 262.161 84.3526 261.385 84.1702 260.502C83.998 259.615 84.1826 258.695 84.6841 257.943C85.1855 257.191 85.9634 256.667 86.8488 256.484L114.528 250.967C115.413 250.798 116.33 250.984 117.08 251.485C117.829 251.987 118.352 252.762 118.534 253.645C118.706 254.533 118.522 255.453 118.02 256.205C117.519 256.957 116.741 257.481 115.855 257.663Z" fill="#2D74FE"/>
</g>
<path d="M211.42 162.31L148.941 170.858L160.717 256.939L223.196 248.391L211.42 162.31Z" fill="white"/>
<path d="M149.504 171.286L210.992 162.874L222.633 247.963L161.144 256.375L149.504 171.286Z" stroke="#1F51B2" stroke-opacity="0.7"/>
<g opacity="0.4">
<path d="M201.936 182.262L163.452 187.528C162.556 187.645 161.649 187.405 160.929 186.858C160.209 186.312 159.734 185.504 159.606 184.609C159.488 183.713 159.729 182.806 160.275 182.086C160.821 181.366 161.63 180.891 162.525 180.763L201.009 175.497C201.905 175.38 202.812 175.62 203.532 176.167C204.252 176.713 204.728 177.521 204.855 178.416C204.973 179.312 204.732 180.219 204.186 180.939C203.64 181.659 202.831 182.134 201.936 182.262Z" fill="#2D74FE"/>
<path d="M203.882 196.491L165.398 201.756C164.502 201.874 163.595 201.633 162.875 201.087C162.155 200.541 161.68 199.732 161.552 198.837C161.437 197.943 161.679 197.04 162.225 196.322C162.772 195.605 163.578 195.131 164.471 195.003L202.955 189.737C203.85 189.619 204.755 189.858 205.474 190.402C206.194 190.946 206.671 191.752 206.801 192.645C206.919 193.541 206.678 194.447 206.132 195.167C205.586 195.887 204.777 196.363 203.882 196.491Z" fill="#2D74FE"/>
<path d="M177.944 214.543L167.344 215.996C166.448 216.114 165.541 215.873 164.821 215.327C164.101 214.781 163.625 213.972 163.498 213.077C163.38 212.181 163.621 211.275 164.167 210.555C164.713 209.835 165.522 209.359 166.417 209.231L177.028 207.778C177.922 207.663 178.826 207.905 179.543 208.451C180.261 208.998 180.735 209.804 180.863 210.696C180.98 211.593 180.74 212.499 180.193 213.219C179.647 213.939 178.838 214.415 177.944 214.543Z" fill="#2D74FE"/>
<path d="M198.514 211.727L187.902 213.18C187.008 213.295 186.105 213.053 185.387 212.507C184.67 211.96 184.196 211.154 184.068 210.262C183.95 209.365 184.191 208.459 184.737 207.739C185.284 207.019 186.092 206.543 186.987 206.415L197.587 204.973C198.481 204.855 199.386 205.094 200.106 205.638C200.825 206.182 201.302 206.988 201.433 207.881C201.55 208.777 201.31 209.683 200.763 210.403C200.217 211.123 199.409 211.599 198.514 211.727Z" fill="#2D74FE"/>
<path d="M207.774 224.959L169.29 230.225C168.394 230.343 167.487 230.102 166.767 229.556C166.047 229.009 165.571 228.201 165.444 227.306C165.329 226.412 165.571 225.508 166.117 224.791C166.664 224.073 167.47 223.599 168.363 223.471L206.847 218.194C207.743 218.077 208.65 218.317 209.37 218.864C210.09 219.41 210.565 220.218 210.693 221.113C210.811 222.009 210.57 222.916 210.024 223.636C209.478 224.356 208.669 224.831 207.774 224.959Z" fill="#2D74FE"/>
<path d="M199.212 240.63L171.236 244.454C170.343 244.568 169.441 244.328 168.724 243.784C168.007 243.24 167.532 242.437 167.401 241.546C167.283 240.652 167.522 239.747 168.066 239.027C168.61 238.307 169.416 237.831 170.309 237.7L198.285 233.877C199.178 233.762 200.08 234.003 200.797 234.546C201.514 235.09 201.989 235.894 202.12 236.784C202.237 237.679 201.998 238.584 201.454 239.303C200.91 240.023 200.105 240.5 199.212 240.63Z" fill="#2D74FE"/>
</g>
<path d="M152.464 174.87L89.6404 180.344L97.1825 266.898L160.006 261.424L152.464 174.87Z" fill="white"/>
<path d="M90.1819 180.799L152.009 175.411L159.464 260.97L97.6372 266.357L90.1819 180.799Z" stroke="#1F51B2" stroke-opacity="0.7"/>
<g opacity="0.4">
<path d="M142.012 194.35L103.31 197.716C102.409 197.789 101.516 197.504 100.824 196.924C100.132 196.343 99.6965 195.513 99.6121 194.614C99.5421 193.715 99.8281 192.825 100.408 192.135C100.989 191.446 101.817 191.012 102.714 190.928L141.416 187.494C142.317 187.42 143.21 187.705 143.902 188.286C144.594 188.866 145.029 189.696 145.114 190.596C145.158 191.046 145.113 191.501 144.98 191.934C144.848 192.367 144.632 192.769 144.343 193.118C144.055 193.467 143.701 193.755 143.301 193.967C142.9 194.178 142.462 194.309 142.012 194.35Z" fill="#2D74FE"/>
<path d="M143.259 208.659L104.557 212.093C103.657 212.166 102.764 211.882 102.072 211.301C101.38 210.72 100.944 209.89 100.86 208.991C100.787 208.09 101.071 207.197 101.652 206.505C102.233 205.813 103.063 205.378 103.962 205.294L142.664 201.859C143.565 201.786 144.458 202.071 145.15 202.651C145.842 203.232 146.277 204.062 146.362 204.962C146.435 205.862 146.15 206.755 145.57 207.447C144.989 208.139 144.159 208.575 143.259 208.659Z" fill="#2D74FE"/>
<path d="M144.507 222.968L105.805 226.402C104.905 226.475 104.011 226.19 103.319 225.61C102.627 225.029 102.192 224.199 102.108 223.3C102.034 222.399 102.319 221.506 102.9 220.814C103.48 220.122 104.31 219.687 105.21 219.602L143.912 216.168C144.812 216.095 145.705 216.38 146.397 216.96C147.089 217.541 147.525 218.371 147.609 219.27C147.682 220.171 147.398 221.064 146.817 221.756C146.237 222.448 145.407 222.883 144.507 222.968Z" fill="#2D74FE"/>
<path d="M145.778 237.276L107.076 240.711C106.175 240.784 105.282 240.499 104.59 239.919C103.898 239.338 103.463 238.508 103.378 237.608C103.305 236.708 103.59 235.815 104.17 235.123C104.751 234.431 105.581 233.995 106.48 233.911L145.182 230.546C146.083 230.472 146.976 230.757 147.668 231.338C148.36 231.918 148.796 232.748 148.88 233.648C148.934 234.537 148.641 235.412 148.062 236.089C147.484 236.766 146.664 237.192 145.778 237.276Z" fill="#2D74FE"/>
<path d="M136.426 252.512L108.3 254.962C107.394 255.045 106.492 254.764 105.793 254.183C105.093 253.601 104.653 252.766 104.569 251.86C104.495 250.959 104.78 250.066 105.361 249.374C105.941 248.682 106.771 248.247 107.671 248.162L135.796 245.713C136.696 245.64 137.589 245.924 138.282 246.505C138.974 247.085 139.409 247.915 139.493 248.815C139.567 249.71 139.287 250.598 138.714 251.289C138.14 251.98 137.319 252.419 136.426 252.512Z" fill="#2D74FE"/>
</g>
<path d="M229.015 170.665L166.027 173.701L170.21 260.483L233.198 257.446L229.015 170.665Z" fill="white"/>
<path d="M166.55 174.176L228.539 171.188L232.675 256.971L170.686 259.959L166.55 174.176Z" stroke="#1F51B2" stroke-opacity="0.7"/>
<g opacity="0.4">
<path d="M217.825 189.703L179.031 191.58C178.13 191.618 177.25 191.299 176.581 190.693C175.913 190.086 175.51 189.241 175.46 188.341C175.422 187.439 175.741 186.559 176.347 185.891C176.953 185.222 177.798 184.819 178.699 184.769L217.504 182.892C218.406 182.854 219.286 183.173 219.954 183.779C220.623 184.386 221.025 185.23 221.076 186.131C221.113 187.035 220.793 187.916 220.184 188.585C219.576 189.254 218.728 189.655 217.825 189.703Z" fill="#2D74FE"/>
<path d="M218.523 204.057L179.718 205.923C178.816 205.961 177.936 205.642 177.268 205.036C176.6 204.429 176.197 203.584 176.146 202.684C176.109 201.78 176.429 200.899 177.038 200.23C177.647 199.561 178.494 199.16 179.397 199.112L218.191 197.235C219.095 197.197 219.976 197.518 220.645 198.126C221.314 198.735 221.715 199.583 221.763 200.486C221.8 201.387 221.481 202.267 220.875 202.936C220.269 203.604 219.424 204.007 218.523 204.057Z" fill="#2D74FE"/>
<path d="M191.108 219.808L180.416 220.323C179.515 220.361 178.635 220.042 177.966 219.436C177.298 218.83 176.895 217.985 176.845 217.084C176.807 216.182 177.126 215.302 177.732 214.634C178.338 213.966 179.183 213.563 180.084 213.512L190.776 212.986C191.679 212.948 192.561 213.269 193.229 213.877C193.898 214.486 194.3 215.334 194.347 216.237C194.385 217.138 194.066 218.018 193.46 218.687C192.853 219.355 192.009 219.758 191.108 219.808Z" fill="#2D74FE"/>
<path d="M211.838 218.755L201.147 219.27C200.245 219.308 199.365 218.989 198.697 218.383C198.028 217.777 197.626 216.932 197.575 216.031C197.538 215.129 197.856 214.249 198.463 213.581C199.069 212.913 199.914 212.51 200.815 212.459L211.506 211.944C212.408 211.907 213.288 212.226 213.956 212.832C214.624 213.438 215.027 214.283 215.078 215.184C215.115 216.085 214.796 216.965 214.19 217.634C213.584 218.302 212.739 218.705 211.838 218.755Z" fill="#2D74FE"/>
<path d="M219.908 232.755L181.103 234.621C180.201 234.658 179.321 234.339 178.653 233.733C177.985 233.127 177.582 232.282 177.532 231.381C177.494 230.478 177.815 229.596 178.423 228.927C179.032 228.259 179.88 227.857 180.782 227.81L219.576 225.932C220.48 225.895 221.361 226.215 222.03 226.824C222.699 227.433 223.1 228.28 223.148 229.183C223.185 230.085 222.866 230.965 222.26 231.633C221.654 232.301 220.809 232.704 219.908 232.755Z" fill="#2D74FE"/>
<path d="M209.995 247.613L181.801 248.975C180.9 249.013 180.02 248.694 179.351 248.088C178.683 247.481 178.28 246.636 178.23 245.736C178.192 244.834 178.511 243.954 179.117 243.286C179.724 242.617 180.568 242.214 181.469 242.164L209.663 240.802C210.565 240.764 211.445 241.083 212.113 241.689C212.781 242.296 213.184 243.141 213.235 244.041C213.272 244.943 212.953 245.823 212.347 246.491C211.741 247.16 210.896 247.562 209.995 247.613Z" fill="#2D74FE"/>
</g>
<path d="M135.304 239.085L134.296 235.319C133.591 232.712 131.952 230.456 129.692 228.979C127.432 227.502 124.707 226.906 122.037 227.306L67.3317 233.705C64.0129 234.112 60.9564 235.715 58.7352 238.214C56.5141 240.714 55.2808 243.937 55.2666 247.281L58.3688 377.605C58.3873 378.678 58.6354 379.735 59.0964 380.704C59.5575 381.674 60.2207 382.534 61.0416 383.225C61.8625 383.917 62.8221 384.425 63.8557 384.716C64.8893 385.006 65.9731 385.071 67.0341 384.908L262.777 362.014C265.05 361.738 267.144 360.643 268.668 358.934C270.191 357.225 271.039 355.02 271.053 352.73L268.375 240.069C268.354 238.995 268.105 237.938 267.643 236.969C267.18 235.999 266.516 235.14 265.694 234.448C264.872 233.756 263.912 233.248 262.878 232.958C261.844 232.668 260.759 232.603 259.698 232.766L146.041 246.056C143.708 246.412 141.325 245.899 139.346 244.614C137.366 243.329 135.928 241.361 135.304 239.085Z" fill="#2D74FE"/>
<path opacity="0.3" d="M135.304 239.085L134.296 235.319C133.591 232.712 131.952 230.456 129.692 228.979C127.432 227.502 124.707 226.906 122.037 227.306L67.3317 233.705C64.0129 234.112 60.9564 235.715 58.7352 238.214C56.5141 240.714 55.2808 243.937 55.2666 247.281L58.3688 377.605C58.3873 378.678 58.6354 379.735 59.0964 380.704C59.5575 381.674 60.2207 382.534 61.0416 383.225C61.8625 383.917 62.8221 384.425 63.8557 384.716C64.8893 385.006 65.9731 385.071 67.0341 384.908L262.777 362.014C265.05 361.738 267.144 360.643 268.668 358.934C270.191 357.225 271.039 355.02 271.053 352.73L268.375 240.069C268.354 238.995 268.105 237.938 267.643 236.969C267.18 235.999 266.516 235.14 265.694 234.448C264.872 233.756 263.912 233.248 262.878 232.958C261.844 232.668 260.759 232.603 259.698 232.766L146.041 246.056C143.708 246.412 141.325 245.899 139.346 244.614C137.366 243.329 135.928 241.361 135.304 239.085Z" fill="black"/>
<path d="M326.64 176.436C325.793 180.682 324.888 184.872 323.869 189.027C322.851 193.183 321.855 197.384 320.744 201.539L319.05 207.755L318.833 208.556C318.73 208.899 318.615 209.243 318.478 209.597C318.185 210.377 317.801 211.118 317.333 211.807C316.766 212.662 316.039 213.401 315.193 213.982C314.261 214.614 313.187 215.007 312.068 215.126C310.373 215.25 308.677 214.888 307.18 214.085C306.042 213.465 304.975 212.725 303.998 211.875C302.228 210.329 300.663 208.563 299.339 206.621L302.601 203.782C304.159 204.994 305.804 206.088 307.523 207.056C308.27 207.48 309.061 207.821 309.881 208.075C310.579 208.304 311.198 208.27 311.198 208.155C311.198 208.041 311.083 208.155 311.026 208.155C310.969 208.155 311.026 208.155 311.026 207.961C311.026 207.766 311.163 207.56 311.243 207.262L311.507 205.992L312.835 199.742L315.525 187.242C316.395 183.075 317.333 178.897 318.238 174.776L326.64 176.436Z" fill="#FFBE9D"/>
<path d="M322.839 163.352C313.075 170.827 313.476 184.918 313.476 184.918L330.932 189.096C330.932 189.096 336.301 174.925 334.126 169.739C331.859 164.336 328.345 159.139 322.839 163.352Z" fill="#263238"/>
<path d="M303.471 203.954L297.049 197.532L293.615 207.583C293.615 207.583 299.041 210.502 304.226 207.743L303.471 203.954Z" fill="#FFBE9D"/>
<path d="M288.155 196.537L286.976 204.481L293.581 207.583L297.049 197.532L288.155 196.537Z" fill="#FFBE9D"/>
<path d="M379.433 429.127L369.611 430.089L359.389 406.703L369.211 405.741L379.433 429.127Z" fill="#FFBE9D"/>
<path d="M442.712 394.557L435.328 401.483L419.406 383.981L426.789 377.055L442.712 394.557Z" fill="#FFBE9D"/>
<path d="M431.952 398.163L437.492 388.181C437.585 388.007 437.739 387.872 437.924 387.802C438.11 387.733 438.314 387.733 438.499 387.804L447.027 391.055C447.238 391.143 447.427 391.275 447.584 391.442C447.74 391.609 447.859 391.807 447.934 392.023C448.008 392.239 448.036 392.468 448.016 392.696C447.996 392.924 447.928 393.144 447.817 393.344C445.825 396.778 444.692 398.358 442.254 402.753C440.754 405.455 437.835 411.648 435.763 415.345C433.691 419.042 429.891 417.234 430.418 415.494C432.787 407.687 432.341 403.349 431.677 399.915C431.563 399.317 431.66 398.698 431.952 398.163Z" fill="#263238"/>
<path d="M368.306 427.055H380.372C380.589 427.056 380.799 427.128 380.971 427.26C381.143 427.393 381.266 427.578 381.322 427.788L383.943 437.323C384.007 437.548 384.018 437.785 383.974 438.015C383.931 438.245 383.834 438.462 383.691 438.648C383.549 438.834 383.365 438.983 383.154 439.085C382.944 439.187 382.712 439.239 382.478 439.235C378.22 439.235 376.205 439.235 370.905 439.235H354.696C350.278 439.235 349.362 434.782 351.182 434.37C359.366 432.561 364.071 430.066 366.601 427.685C367.07 427.268 367.679 427.043 368.306 427.055Z" fill="#263238"/>
<path opacity="0.2" d="M359.401 406.714L364.666 418.768H374.911L369.222 405.753L359.401 406.714Z" fill="black"/>
<path opacity="0.2" d="M426.789 377.066L419.406 383.992L427.625 393.012L435.008 386.075L426.789 377.066Z" fill="black"/>
<path d="M325.793 161.91C325.793 161.91 321.374 163.844 336.186 222.452L377.327 218.892C375.198 202.214 374.282 191.889 379.307 156.827C373.447 156.134 367.543 155.87 361.644 156.037C355.387 156.131 349.144 156.67 342.963 157.651C337.171 158.779 331.44 160.2 325.793 161.91Z" fill="#263238"/>
<path d="M361.644 155.705C361.644 155.705 363.934 155.705 366.727 155.705C368.387 158.258 363.007 169.442 354.135 176.756C352.784 172.69 350.302 169.092 346.981 166.385L361.644 155.705Z" fill="white"/>
<path d="M342.963 157.502C342.963 157.502 341.921 157.651 339.437 158.224C337.777 160.776 334.973 171.685 339.861 177.248C341.091 173.03 343.56 169.277 346.946 166.477L342.963 157.502Z" fill="white"/>
<path d="M357.97 135.158C357.317 141.271 357.088 152.328 361.644 156.037C361.644 156.037 356.779 161.005 346.946 166.477C339.792 161.532 342.963 157.651 342.963 157.651C349.522 155.476 348.915 150.52 347.347 145.941L357.97 135.158Z" fill="#FFBE9D"/>
<path d="M346.775 166.511C346.775 166.511 352.807 159.941 355.932 161.2C359.057 162.459 356.642 164.714 356.367 166.832C356.093 168.949 357.581 174.581 353.403 173.116C349.224 171.651 346.775 166.511 346.775 166.511Z" fill="#2D74FE"/>
<path d="M346.534 166.374C346.534 166.374 343.684 161.337 340.605 162.013C337.526 162.688 339.357 164.451 339.632 166.351C339.987 168.778 337.423 173.448 341.131 172.074C344.84 170.701 346.534 166.374 346.534 166.374Z" fill="#2D74FE"/>
<g opacity="0.2">
<path d="M344.955 165.286C344.913 166.302 345.109 167.313 345.527 168.24C345.906 167.648 346.239 167.028 346.523 166.385C346.1 165.668 345.614 164.99 345.069 164.359C344.975 164.659 344.936 164.973 344.955 165.286Z" fill="black"/>
<path d="M348.973 164.382C347.679 165.527 346.786 166.511 346.786 166.511C347.119 167.199 347.501 167.86 347.931 168.492C348.622 167.798 349.03 166.872 349.076 165.893C349.185 165.39 349.15 164.866 348.973 164.382Z" fill="black"/>
</g>
<path d="M346.706 168.572C345.848 168.572 345.321 167.644 345.264 165.435C345.207 163.226 346.901 164.451 346.901 164.451C346.901 164.451 349.19 163.306 348.778 165.95C348.48 168.045 347.587 168.572 346.706 168.572Z" fill="#2D74FE"/>
<path opacity="0.2" d="M353.643 139.565L347.359 145.941C347.735 147.003 348.022 148.094 348.217 149.203C350.747 148.62 354.41 145.987 354.444 143.285C354.403 142.007 354.132 140.747 353.643 139.565Z" fill="black"/>
<path d="M348.251 114.496C348.251 114.496 341.383 124.009 340.239 128.233C335.568 130.957 334.63 117.553 337.102 109.288C344.817 114.13 348.251 114.496 348.251 114.496Z" fill="#263238"/>
<path d="M363.35 125.611C360.797 135.375 359.916 139.565 353.941 143.652C344.932 149.81 333.496 144.544 333.073 134.208C332.695 124.913 336.93 110.501 347.381 108.475C349.685 108.008 352.069 108.139 354.307 108.856C356.545 109.573 358.561 110.853 360.164 112.572C361.766 114.292 362.9 116.393 363.458 118.676C364.016 120.959 363.979 123.347 363.35 125.611Z" fill="#FFBE9D"/>
<path d="M368.661 121.708C368.661 121.708 363.751 129.663 363.087 133.155C359.527 135.57 358.027 124.97 359.527 118.274C361.164 112.31 368.661 121.708 368.661 121.708Z" fill="#263238"/>
<path d="M366.704 116.179C365.285 117.255 363.785 113.283 365.193 110.238C362.48 110.41 359.218 108.796 359.916 106.174C354.57 107.971 352.59 102.534 353.208 98.7681C353.952 94.1893 357.936 93.2163 360.282 94.4183C360.282 92.3693 365.456 88.0996 367.425 91.4421C371.077 90.1486 376.96 90.5492 376.834 95.0364C379.25 95.1051 386.381 97.8409 383.703 104.194C386.851 104.377 388.556 108.372 386.805 111.394C387.495 111.76 388.087 112.286 388.53 112.928C388.974 113.57 389.257 114.31 389.354 115.085C389.452 115.859 389.362 116.646 389.091 117.378C388.821 118.111 388.378 118.767 387.801 119.293C389.254 122.315 384.847 126.813 382.501 126.275C380.715 129.011 377.979 131.071 376.193 128.736C372.759 131.266 368.81 128.049 369.692 125.577C365.8 124.982 361.828 118.491 366.704 116.179Z" fill="#263238"/>
<path d="M372.519 106.564C375.083 110.845 374.866 115.721 372.05 117.381C369.234 119.041 364.85 116.98 362.285 112.699C359.721 108.418 359.927 103.542 362.755 101.882C365.582 100.222 369.955 102.294 372.519 106.564Z" fill="#2D74FE"/>
<path d="M348.709 113.352C348.561 114.576 345.184 114.256 344.211 112.092C342.814 113.558 339.529 114.313 338.407 112.722C336.507 116.293 332.684 115.355 331.699 113.649C330.715 111.944 330.062 108.773 332.043 108.143C330.898 107.159 331.241 102.523 334.24 103.106C335.5 100.634 338.945 97.8294 341.463 100.016C342.837 98.8711 348.332 96.4901 350.552 100.851C351.039 100.519 351.595 100.3 352.179 100.213C352.762 100.126 353.358 100.173 353.921 100.349C354.484 100.525 355 100.827 355.429 101.231C355.859 101.635 356.191 102.132 356.402 102.683C359.962 101.756 361.507 104.457 361.496 105.922C364.025 106.609 364.197 110.982 362.64 111.921C363.247 114.13 362.926 116.499 360.603 116.293C360.156 119.27 356.173 119.727 355.234 118.113C352.647 119.773 347.37 116.889 348.709 113.352Z" fill="#263238"/>
<path d="M342.665 104.904C345.561 100.897 356.127 99.1802 365.273 105.236C373.515 110.65 372.977 123.23 366.418 122.555C359.859 121.88 353.38 114.199 353.38 114.199L342.665 104.904Z" fill="#263238"/>
<path d="M364.151 134.425C363.239 136.147 361.684 137.438 359.824 138.02C357.34 138.764 356.058 136.566 356.699 134.196C357.283 132.067 359.263 129.114 361.77 129.412C362.317 129.484 362.837 129.693 363.283 130.017C363.728 130.342 364.086 130.774 364.323 131.272C364.559 131.77 364.667 132.32 364.638 132.87C364.608 133.421 364.44 133.956 364.151 134.425Z" fill="#FFBE9D"/>
<path d="M336.186 222.452C336.186 222.452 322.267 284.037 331.608 327.455C337.835 356.531 360.225 415.265 360.225 415.265L377.785 414.819C377.785 414.819 360.786 353.177 357.272 328.966C351.262 287.505 366.315 219.888 366.315 219.888L336.186 222.452Z" fill="#2D74FE"/>
<path opacity="0.2" d="M352.235 234.895L360.98 248.735C358.337 265.144 356.659 281.694 355.955 298.3C343.65 276.207 349.533 246.583 352.235 234.895Z" fill="black"/>
<path d="M357.752 416.181L379.433 415.62L378.185 408.969L356.058 410.011L357.752 416.181Z" fill="#263238"/>
<path d="M345.184 221.8C345.184 221.8 353.345 287.105 371.054 322.762C385.351 351.563 423.504 392.589 423.504 392.589L433.257 382.538C433.257 382.538 407.489 337.987 396.867 318.859C370.802 271.926 392.105 236.154 377.327 218.927L345.184 221.8Z" fill="#2D74FE"/>
<path d="M422.519 393.905L435.111 381.634L430.933 375.945L417.574 389.269L422.519 393.905Z" fill="#263238"/>
<path d="M377.739 216.431L379.914 219.957C380.085 220.22 379.765 220.541 379.296 220.587L336.141 224.318C335.774 224.318 335.454 224.192 335.408 223.963L334.721 220.312C334.664 220.06 334.973 219.82 335.374 219.785L377.041 216.179C377.169 216.155 377.301 216.166 377.424 216.21C377.547 216.255 377.655 216.331 377.739 216.431Z" fill="#2D74FE"/>
<path opacity="0.5" d="M377.739 216.431L379.914 219.957C380.085 220.22 379.765 220.541 379.296 220.587L336.141 224.318C335.774 224.318 335.454 224.192 335.408 223.963L334.721 220.312C334.664 220.06 334.973 219.82 335.374 219.785L377.041 216.179C377.169 216.155 377.301 216.166 377.424 216.21C377.547 216.255 377.655 216.331 377.739 216.431Z" fill="white"/>
<path d="M372.542 221.571L373.687 221.48C373.904 221.48 374.064 221.331 374.041 221.193L373.103 216.454C373.103 216.306 372.874 216.214 372.645 216.237L371.5 216.328C371.271 216.328 371.111 216.477 371.145 216.615L372.084 221.354C372.118 221.491 372.324 221.594 372.542 221.571Z" fill="#2D74FE"/>
<path d="M339.311 224.444L340.456 224.353C340.674 224.353 340.834 224.204 340.811 224.067L339.872 219.327C339.831 219.245 339.764 219.179 339.681 219.14C339.598 219.101 339.504 219.09 339.414 219.11L338.27 219.202C338.041 219.202 337.88 219.35 337.915 219.488L338.853 224.227C338.888 224.387 339.094 224.467 339.311 224.444Z" fill="#2D74FE"/>
<path d="M355.932 223.013L357.077 222.91C357.306 222.91 357.466 222.762 357.432 222.624L356.493 217.885C356.493 217.748 356.264 217.645 356.047 217.668L354.902 217.771C354.685 217.771 354.524 217.919 354.547 218.057L355.486 222.796C355.509 222.933 355.703 223.025 355.932 223.013Z" fill="#2D74FE"/>
<path d="M346.821 125.279C346.66 126.081 346.111 126.653 345.584 126.55C345.058 126.447 344.76 125.703 344.909 124.901C345.058 124.1 345.63 123.528 346.157 123.631C346.683 123.734 346.981 124.466 346.821 125.279Z" fill="#263238"/>
<path d="M337.707 123.481C337.866 122.674 337.567 121.936 337.04 121.833C336.512 121.729 335.956 122.299 335.798 123.105C335.639 123.912 335.938 124.649 336.466 124.753C336.993 124.857 337.549 124.287 337.707 123.481Z" fill="#263238"/>
<path d="M337.285 121.937L335.454 120.998C335.454 120.998 336.152 122.704 337.285 121.937Z" fill="#263238"/>
<path d="M340.845 125.497C339.773 127.194 338.471 128.735 336.976 130.076C337.323 130.458 337.751 130.759 338.227 130.957C338.704 131.155 339.219 131.245 339.735 131.22L340.845 125.497Z" fill="#ED847E"/>
<path d="M343.455 134.998C345.146 135.016 346.782 134.394 348.034 133.258C348.058 133.24 348.078 133.216 348.093 133.19C348.107 133.163 348.115 133.134 348.117 133.103C348.118 133.073 348.113 133.043 348.102 133.015C348.09 132.987 348.073 132.962 348.051 132.941C348.028 132.921 348.002 132.905 347.973 132.896C347.944 132.887 347.914 132.884 347.884 132.888C347.854 132.892 347.825 132.903 347.799 132.919C347.774 132.936 347.752 132.957 347.736 132.983C346.966 133.662 346.046 134.15 345.051 134.407C344.057 134.663 343.016 134.681 342.013 134.46C341.987 134.455 341.961 134.455 341.935 134.46C341.91 134.466 341.886 134.476 341.864 134.491C341.843 134.506 341.825 134.525 341.811 134.547C341.797 134.57 341.788 134.594 341.784 134.62C341.777 134.646 341.776 134.673 341.781 134.699C341.785 134.725 341.796 134.75 341.811 134.772C341.826 134.793 341.846 134.812 341.869 134.825C341.892 134.838 341.918 134.846 341.944 134.849C342.441 134.953 342.948 135.003 343.455 134.998Z" fill="#263238"/>
<path d="M352.281 122.154C352.353 122.153 352.424 122.133 352.487 122.097C352.578 122.042 352.643 121.954 352.669 121.851C352.695 121.748 352.679 121.639 352.624 121.548C352.246 120.904 351.719 120.361 351.087 119.963C350.456 119.565 349.739 119.323 348.995 119.258C348.943 119.257 348.89 119.266 348.841 119.284C348.792 119.303 348.747 119.331 348.709 119.367C348.671 119.404 348.64 119.447 348.618 119.495C348.597 119.543 348.585 119.595 348.583 119.647C348.582 119.7 348.591 119.752 348.609 119.802C348.628 119.851 348.656 119.896 348.693 119.934C348.729 119.972 348.772 120.003 348.82 120.025C348.868 120.046 348.92 120.058 348.973 120.059C349.587 120.127 350.176 120.34 350.691 120.68C351.207 121.021 351.634 121.479 351.937 122.017C351.979 122.066 352.032 122.104 352.092 122.128C352.152 122.151 352.217 122.161 352.281 122.154Z" fill="#263238"/>
<path d="M335.202 118.926C335.266 118.941 335.332 118.941 335.397 118.926C335.928 118.612 336.527 118.427 337.143 118.387C337.76 118.347 338.377 118.454 338.945 118.697C339.038 118.736 339.142 118.739 339.237 118.704C339.331 118.67 339.409 118.601 339.455 118.511C339.502 118.422 339.512 118.318 339.486 118.221C339.459 118.124 339.397 118.041 339.311 117.988C338.626 117.677 337.876 117.537 337.124 117.579C336.373 117.62 335.643 117.843 334.996 118.228C334.906 118.281 334.84 118.366 334.812 118.467C334.785 118.567 334.797 118.675 334.847 118.766C334.886 118.822 334.94 118.867 335.002 118.895C335.065 118.924 335.134 118.934 335.202 118.926Z" fill="#263238"/>
<path d="M381.058 166.191C381.837 166.946 382.375 167.541 382.981 168.217C383.588 168.892 384.126 169.556 384.676 170.231C385.763 171.594 386.805 172.99 387.778 174.421C389.713 177.306 391.427 180.333 392.906 183.476C394.382 186.633 395.573 189.916 396.466 193.286C396.912 194.968 397.313 196.72 397.611 198.402C398.179 200.834 397.9 203.386 396.821 205.637C396.193 206.819 395.323 207.857 394.268 208.682C393.354 209.385 392.349 209.963 391.281 210.399C389.443 211.107 387.517 211.562 385.557 211.75C382.079 212.084 378.574 212.038 375.106 211.612C368.466 210.84 361.913 209.449 355.532 207.457L356.585 203.302C359.698 203.817 362.904 204.298 366.063 204.63C369.222 204.962 372.404 205.259 375.53 205.328C378.557 205.437 381.588 205.268 384.584 204.824C385.874 204.614 387.13 204.229 388.316 203.679C389.043 203.404 389.642 202.87 389.998 202.18C390.094 201.916 390.141 201.637 390.136 201.356C390.152 201.15 390.152 200.943 390.136 200.738C390.136 200.509 390.056 200.303 389.953 199.879C389.632 198.402 389.209 196.949 388.751 195.506C387.819 192.631 386.671 189.83 385.317 187.127C383.956 184.409 382.395 181.796 380.646 179.309C379.788 178.05 378.883 176.825 377.945 175.646C377.476 175.051 376.983 174.501 376.503 173.917C376.022 173.334 375.472 172.773 375.095 172.361L381.058 166.191Z" fill="#FFBE9D"/>
<path d="M359.206 203.931L351.193 199.684L350.827 210.296C350.827 210.296 356.55 210.662 359.824 208.006L359.206 203.931Z" fill="#FFBE9D"/>
<path d="M345.149 261.017L351.766 189.119L337.629 178.29L294.474 174.318L286.976 255.66L345.149 261.017Z" fill="white"/>
<path d="M351.766 189.119L337.629 178.29L341.337 191.248L351.766 189.119Z" fill="#2D74FE"/>
<path d="M292.035 268.229C301.771 268.229 309.664 260.336 309.664 250.601C309.664 240.865 301.771 232.972 292.035 232.972C282.3 232.972 274.407 240.865 274.407 250.601C274.407 260.336 282.3 268.229 292.035 268.229Z" fill="#2D74FE"/>
<path d="M300.745 261.618C306.837 256.806 307.874 247.966 303.061 241.874C298.248 235.783 289.409 234.746 283.317 239.558C277.225 244.371 276.188 253.211 281.001 259.302C285.814 265.394 294.653 266.431 300.745 261.618Z" fill="white"/>
<path d="M300.724 249.364L294.519 248.643L295.241 242.439L290.799 241.912L290.078 248.117L283.874 247.384L283.347 251.837L289.551 252.569L288.819 258.762L293.272 259.289L293.993 253.085L300.197 253.817L300.724 249.364Z" fill="#2D74FE"/>
<path opacity="0.4" d="M341.212 204.023C341.154 204.652 340.973 205.264 340.679 205.823C340.385 206.382 339.983 206.878 339.498 207.282C339.012 207.686 338.451 207.99 337.848 208.178C337.244 208.365 336.609 208.431 335.98 208.373L304.501 205.477C303.232 205.358 302.061 204.74 301.245 203.76C300.43 202.779 300.037 201.515 300.151 200.245C300.209 199.616 300.39 199.004 300.684 198.445C300.978 197.886 301.379 197.39 301.865 196.986C302.351 196.582 302.912 196.278 303.515 196.091C304.119 195.904 304.753 195.837 305.383 195.896L336.862 198.792C337.491 198.849 338.103 199.03 338.662 199.324C339.221 199.618 339.717 200.02 340.121 200.506C340.525 200.991 340.829 201.552 341.016 202.156C341.204 202.759 341.27 203.394 341.212 204.023Z" fill="#2D74FE"/>
<path opacity="0.4" d="M330.486 217.015C330.428 217.644 330.247 218.256 329.953 218.815C329.659 219.375 329.258 219.871 328.772 220.275C328.286 220.679 327.725 220.983 327.122 221.17C326.518 221.357 325.884 221.423 325.255 221.365L303.253 219.339C302.624 219.281 302.012 219.1 301.453 218.806C300.894 218.512 300.398 218.111 299.994 217.625C299.59 217.139 299.286 216.578 299.099 215.975C298.912 215.371 298.845 214.737 298.904 214.108C298.961 213.478 299.142 212.867 299.436 212.307C299.73 211.748 300.132 211.252 300.618 210.848C301.103 210.444 301.664 210.14 302.268 209.953C302.871 209.766 303.506 209.7 304.135 209.758L326.136 211.795C327.403 211.914 328.572 212.53 329.387 213.508C330.202 214.486 330.597 215.747 330.486 217.015Z" fill="#ABC7FF"/>
<path d="M346.294 200.314L347.496 208.247L350.816 210.296L351.182 199.684L346.294 200.314Z" fill="#FFBE9D"/>
<path d="M379.296 156.85C384.344 157.743 391.418 172.212 391.418 172.212L378.7 183.659C378.7 183.659 368.581 172.624 369.119 166.053C369.589 160.502 372.885 155.705 379.296 156.85Z" fill="#263238"/>
<path d="M429.983 403.532C430.114 403.53 430.245 403.511 430.372 403.475C431.585 403.063 432.375 400.831 432.741 399.537C432.749 399.5 432.747 399.461 432.735 399.425C432.723 399.389 432.701 399.356 432.673 399.331C432.642 399.306 432.604 399.292 432.564 399.292C432.524 399.292 432.486 399.306 432.455 399.331C432.089 399.514 428.861 401.243 428.758 402.513C428.743 402.652 428.767 402.792 428.828 402.917C428.889 403.043 428.983 403.149 429.101 403.223C429.351 403.424 429.662 403.533 429.983 403.532ZM432.272 399.892C431.711 401.678 430.99 402.857 430.303 403.086C430.148 403.134 429.982 403.14 429.823 403.104C429.665 403.068 429.518 402.99 429.399 402.879C429.337 402.844 429.287 402.792 429.255 402.729C429.222 402.666 429.209 402.595 429.216 402.525C429.216 401.746 431.105 400.521 432.215 399.892H432.272Z" fill="#2D74FE"/>
<path d="M429.479 400.395C430.579 400.39 431.663 400.136 432.65 399.651C432.678 399.632 432.701 399.607 432.717 399.577C432.733 399.547 432.741 399.513 432.741 399.48C432.743 399.444 432.734 399.409 432.715 399.378C432.697 399.348 432.67 399.323 432.638 399.308C432.535 399.251 429.983 397.843 428.609 398.335C428.436 398.385 428.278 398.476 428.146 398.599C428.015 398.723 427.915 398.875 427.854 399.045C427.768 399.205 427.739 399.39 427.772 399.569C427.806 399.748 427.899 399.91 428.037 400.029C428.463 400.308 428.971 400.437 429.479 400.395ZM432.1 399.48C431.013 399.949 428.895 400.235 428.3 399.731C428.197 399.64 428.094 399.502 428.231 399.193C428.272 399.08 428.339 398.977 428.426 398.894C428.514 398.81 428.619 398.748 428.735 398.713C429.662 398.381 431.379 399.125 432.1 399.525V399.48Z" fill="#2D74FE"/>
<path d="M362.961 429.001C364.068 428.975 365.169 428.833 366.246 428.578C366.284 428.564 366.316 428.539 366.339 428.507C366.363 428.474 366.375 428.435 366.375 428.395C366.375 428.355 366.363 428.315 366.339 428.283C366.316 428.25 366.284 428.225 366.246 428.211C365.754 427.971 361.37 425.922 360.271 426.7C360.17 426.766 360.089 426.859 360.039 426.968C359.988 427.078 359.969 427.199 359.985 427.319C359.987 427.543 360.042 427.763 360.146 427.962C360.249 428.161 360.398 428.332 360.58 428.463C361.296 428.892 362.13 429.08 362.961 429.001ZM365.559 428.314C364.266 428.555 361.862 428.875 360.866 428.131C360.738 428.031 360.634 427.904 360.559 427.76C360.484 427.616 360.44 427.458 360.431 427.296C360.421 427.245 360.427 427.193 360.447 427.146C360.467 427.099 360.502 427.059 360.545 427.032C361.152 426.609 363.739 427.513 365.559 428.314Z" fill="#2D74FE"/>
<path d="M366.2 428.589C366.245 428.603 366.293 428.603 366.338 428.589C366.366 428.564 366.387 428.531 366.397 428.495C366.407 428.458 366.406 428.419 366.395 428.383C366.395 428.2 365.365 423.885 362.961 424.159C362.366 424.239 362.194 424.526 362.171 424.766C362.022 425.911 364.781 428.074 366.097 428.624L366.2 428.589ZM363.201 424.503C364.724 424.503 365.605 427.021 365.903 428.028C364.472 427.273 362.469 425.476 362.594 424.777C362.594 424.72 362.594 424.56 363.041 424.514L363.201 424.503Z" fill="#2D74FE"/>
<path d="M346.374 123.722L344.554 122.784C344.554 122.784 345.252 124.489 346.374 123.722Z" fill="#263238"/>
</svg>
