<svg width="24" height="24" viewBox="0 0 24 24" fill="none" xmlns="http://www.w3.org/2000/svg">
<circle cx="12" cy="12" r="12"/>
<path d="M19.2532 10.7792H17.6732V10.2667C17.6732 10.1304 17.5731 10.0084 17.4368 10.0084H16.1315V8.26253C16.1315 8.12619 16.0315 8.00418 15.8951 8.00418H14.5282V6.25835C14.5282 6.12201 14.4281 6 14.2918 6H11.0234C10.883 6.00458 10.7704 6.11779 10.7665 6.25835V8.00418H9.35842C9.21799 8.00876 9.10537 8.12198 9.10152 8.26253V10.0084H7.63175C7.49131 10.0129 7.3787 10.1262 7.37484 10.2667V10.7792H7.25151V8.91004C7.25247 8.77141 7.14323 8.65723 7.00484 8.65169H6.94318V8.03502C6.94318 7.89879 6.83273 7.78835 6.69651 7.78835H5.80234C5.66612 7.78835 5.55567 7.89879 5.55567 8.03502V8.65169H5.52484C5.38645 8.65723 5.27733 8.77141 5.27817 8.91004V10.7792H4.74653C4.66608 10.7802 4.59104 10.8198 4.54503 10.8857C4.4989 10.9516 4.48746 11.0356 4.5142 11.1115L5.66455 14.3473C5.46775 14.4109 5.26167 14.4412 5.05487 14.4366C4.91865 14.4366 4.80808 14.547 4.80808 14.6833C4.80808 14.8196 4.91865 14.9301 5.05487 14.9301C5.6837 14.9301 6.01384 14.7504 6.30483 14.5917C6.57884 14.4424 6.81551 14.3135 7.3186 14.3135C7.82169 14.3135 8.05836 14.4424 8.33249 14.5917C8.6236 14.7504 8.95361 14.9302 9.58233 14.9302C10.2112 14.9302 10.5411 14.7504 10.8322 14.5917C11.1062 14.4424 11.343 14.3135 11.8459 14.3135C12.349 14.3135 12.5857 14.4424 12.8597 14.5917C13.1508 14.7504 13.4808 14.9302 14.1095 14.9302C14.7383 14.9302 15.0682 14.7504 15.3593 14.5917C15.6333 14.4424 15.8699 14.3135 16.373 14.3135C16.876 14.3135 17.1127 14.4424 17.3867 14.5917C17.6778 14.7504 18.0078 14.9302 18.6365 14.9302C18.7727 14.9302 18.8832 14.8197 18.8832 14.6835C18.8832 14.5472 18.7727 14.4368 18.6365 14.4368C18.4363 14.4411 18.2369 14.4132 18.0456 14.3542L19.4785 11.1301C19.5126 11.0533 19.5058 10.9646 19.4604 10.894C19.415 10.8233 19.3371 10.7802 19.2532 10.7792V10.7792ZM17.1799 10.7792H16.4707C16.4019 10.7792 16.3363 10.8079 16.2896 10.8583L15.2221 12.0125H14.4049V10.5017H17.1799V10.7792ZM13.9115 10.5017V12.0125H11.1365V10.5017H13.9115ZM15.6382 10.0084H12.8632V8.49752H15.6382V10.0084ZM11.2599 6.49334H14.0349V8.00418H11.2599V6.49334ZM9.59485 8.49752H12.3699V10.0084H9.59485V8.49752ZM7.86818 10.5017H10.6432V12.0125H9.73975L8.76548 10.8662C8.71851 10.811 8.64974 10.7792 8.57735 10.7792H7.86818V10.5017ZM6.04901 8.28169H6.44984V8.65169H6.04901V8.28169ZM5.7715 9.14503H6.75818V10.7792H5.7715V9.14503ZM17.5985 14.1433C17.3132 13.9881 16.9843 13.8191 16.373 13.8191C15.7443 13.8191 15.4143 13.9994 15.1232 14.158C14.8492 14.3074 14.6125 14.4366 14.1095 14.4366C13.6066 14.4366 13.3698 14.3077 13.0958 14.1584C12.8047 13.9997 12.4748 13.82 11.8459 13.82C11.2172 13.82 10.8873 13.9999 10.5961 14.1585C10.3221 14.3078 10.0854 14.4368 9.58233 14.4368C9.07924 14.4368 8.84257 14.3078 8.56856 14.1585C8.27745 13.9999 7.94743 13.8202 7.3186 13.8202C6.72096 13.8202 6.39335 13.9805 6.11236 14.1327L5.09606 11.2725H8.46329L9.43768 12.4189C9.48453 12.4742 9.5533 12.5059 9.62569 12.5059H15.3299C15.3987 12.5059 15.4643 12.4772 15.511 12.4268L16.5786 11.2725H18.8737L17.5985 14.1433Z" fill="black"/>
<path d="M5.05477 16.1647C5.68361 16.1647 6.01374 15.9849 6.30474 15.8263C6.57874 15.6769 6.81542 15.548 7.31851 15.548C7.8216 15.548 8.05827 15.6769 8.3324 15.8263C8.62351 15.9849 8.95353 16.1647 9.58224 16.1647C10.2111 16.1647 10.541 15.9849 10.8321 15.8263C11.1061 15.6769 11.3429 15.548 11.8459 15.548C12.3489 15.548 12.5856 15.6769 12.8596 15.8263C13.1507 15.9849 13.4808 16.1647 14.1095 16.1647C14.7382 16.1647 15.0681 15.9849 15.3592 15.8263C15.6332 15.6769 15.8699 15.548 16.373 15.548C16.8759 15.548 17.1126 15.6769 17.3866 15.8263C17.6777 15.9849 18.0077 16.1647 18.6365 16.1647C18.7727 16.1647 18.8831 16.0543 18.8831 15.918C18.8831 15.7817 18.7727 15.6714 18.6365 15.6714C18.1334 15.6714 17.8967 15.5424 17.6227 15.393C17.3316 15.2344 17.0017 15.0547 16.373 15.0547C15.7442 15.0547 15.4142 15.2344 15.1232 15.3931C14.8492 15.5424 14.6126 15.6714 14.1095 15.6714C13.6065 15.6714 13.3698 15.5424 13.0957 15.3931C12.8047 15.2345 12.4747 15.0547 11.846 15.0547C11.2173 15.0547 10.8872 15.2345 10.5961 15.3931C10.322 15.5424 10.0855 15.6714 9.58236 15.6714C9.07927 15.6714 8.8426 15.5424 8.56847 15.3931C8.27736 15.2345 7.94734 15.0547 7.31863 15.0547C6.68979 15.0547 6.35978 15.2344 6.06867 15.3931C5.79454 15.5424 5.55787 15.6714 5.05477 15.6714C4.91855 15.6714 4.80811 15.7818 4.80811 15.918C4.80811 16.0543 4.91855 16.1647 5.05477 16.1647V16.1647Z" fill="black"/>
<path d="M5.05477 17.3971C5.68361 17.3971 6.01374 17.2173 6.30474 17.0587C6.57874 16.9093 6.81542 16.7805 7.31851 16.7805C7.8216 16.7805 8.05827 16.9093 8.3324 17.0587C8.62351 17.2173 8.95353 17.3971 9.58224 17.3971C10.2111 17.3971 10.541 17.2173 10.8321 17.0587C11.1061 16.9093 11.3429 16.7805 11.8459 16.7805C12.3489 16.7805 12.5856 16.9093 12.8596 17.0587C13.1507 17.2173 13.4808 17.3971 14.1095 17.3971C14.7382 17.3971 15.0681 17.2173 15.3592 17.0587C15.6332 16.9093 15.8699 16.7805 16.373 16.7805C16.8759 16.7805 17.1126 16.9093 17.3866 17.0587C17.6777 17.2173 18.0077 17.3971 18.6365 17.3971C18.7727 17.3971 18.8831 17.2867 18.8831 17.1505C18.8831 17.0141 18.7727 16.9038 18.6365 16.9038C18.1334 16.9038 17.8967 16.7748 17.6227 16.6254C17.3316 16.4668 17.0017 16.2871 16.373 16.2871C15.7442 16.2871 15.4142 16.4668 15.1232 16.6256C14.8492 16.7748 14.6126 16.9038 14.1095 16.9038C13.6065 16.9038 13.3698 16.7748 13.0957 16.6256C12.8047 16.4669 12.4747 16.2871 11.846 16.2871C11.2173 16.2871 10.8872 16.4669 10.5961 16.6256C10.322 16.7748 10.0855 16.9038 9.58236 16.9038C9.07927 16.9038 8.8426 16.7748 8.56847 16.6256C8.27736 16.4669 7.94734 16.2871 7.31863 16.2871C6.68979 16.2871 6.35978 16.4668 6.06867 16.6256C5.79454 16.7748 5.55787 16.9038 5.05477 16.9038C4.91855 16.9038 4.80811 17.0142 4.80811 17.1505C4.80811 17.2867 4.91855 17.3971 5.05477 17.3971V17.3971Z" fill="black"/>
</svg>
