<svg xmlns="http://www.w3.org/2000/svg" width="24" height="24" fill="none" viewBox="0 0 24 24">
    <path fill="#828282" d="M21.67 10.572h-2.106v-.919c0-.244-.133-.463-.315-.463h-1.74V6.058c0-.244-.134-.463-.316-.463h-1.822V2.463c0-.244-.133-.463-.315-.463h-4.358c-.187.008-.338.211-.343.463v3.132H8.478c-.187.008-.338.211-.343.463V9.19h-1.96c-.187.008-.337.211-.342.463v.92H5.67V7.22c.001-.249-.145-.454-.33-.464h-.081V5.65c0-.244-.148-.442-.33-.442H3.737c-.181 0-.328.198-.328.442v1.106h-.042c-.184.01-.33.215-.328.464v3.352h-.71c-.107.002-.207.073-.268.191-.061.119-.077.27-.041.405l1.534 5.805c-.263.114-.537.168-.813.16-.182 0-.33.198-.33.442 0 .245.148.443.33.443.838 0 1.278-.323 1.666-.607.366-.268.681-.5 1.352-.5.67 0 .986.232 1.352.5.388.284.828.607 1.666.607.839 0 1.279-.323 1.667-.607.365-.268.681-.5 1.352-.5.67 0 .986.232 1.351.5.388.284.828.607 1.667.607.838 0 1.278-.323 1.666-.607.365-.268.68-.5 1.352-.5.67 0 .986.232 1.351.5.388.284.828.607 1.667.607.181 0 .329-.198.329-.442 0-.245-.148-.443-.33-.443-.266.008-.532-.042-.787-.148l1.91-5.783c.046-.138.037-.297-.024-.424-.06-.127-.164-.204-.276-.206zm-2.764 0h-.945c-.092 0-.18.052-.242.142l-1.423 2.07h-1.09v-2.71h3.7v.498zm-4.357-.497v2.71h-3.7v-2.71h3.7zm2.302-.885h-3.7V6.48h3.7v2.71zm-5.838-6.305h3.7v2.71h-3.7v-2.71zM8.793 6.48h3.7v2.71h-3.7V6.48zm-2.302 3.595h3.7v2.71H8.986l-1.299-2.057c-.062-.098-.154-.156-.25-.156H6.49v-.497zM4.065 6.093H4.6v.663h-.535v-.663zm-.37 1.548h1.316v2.931H3.695v-2.93zm15.77 8.966c-.38-.279-.82-.582-1.634-.582-.839 0-1.279.323-1.667.608-.365.268-.68.5-1.351.5-.67 0-.987-.232-1.352-.5-.388-.284-.828-.606-1.666-.606-.839 0-1.279.322-1.667.607-.365.268-.68.5-1.352.5-.67 0-.986-.232-1.351-.5-.388-.285-.828-.607-1.667-.607-.797 0-1.234.287-1.608.56l-1.355-5.13h4.49l1.299 2.057c.062.099.154.156.25.156h7.606c.091 0 .18-.052.241-.142l1.424-2.07h3.06l-1.7 5.149z"/>
    <path fill="#828282" d="M2.329 20.009c.838 0 1.279-.323 1.667-.607.365-.268.68-.5 1.351-.5.671 0 .987.232 1.352.5.388.284.828.607 1.667.607.838 0 1.278-.323 1.666-.607.365-.268.681-.5 1.352-.5.67 0 .986.232 1.351.5.389.284.829.607 1.667.607.838 0 1.278-.323 1.666-.607.365-.268.681-.5 1.352-.5.67 0 .986.232 1.351.5.389.284.828.607 1.667.607.181 0 .329-.198.329-.442 0-.245-.148-.443-.33-.443-.67 0-.986-.231-1.35-.5-.389-.284-.829-.606-1.667-.606-.839 0-1.279.322-1.667.607-.365.268-.68.5-1.351.5-.67 0-.986-.232-1.352-.5-.388-.285-.828-.607-1.666-.607s-1.279.322-1.667.607c-.365.268-.68.5-1.351.5-.671 0-.987-.232-1.352-.5-.388-.285-.828-.607-1.667-.607-.838 0-1.278.322-1.666.607-.366.268-.681.5-1.352.5-.182 0-.329.197-.329.442 0 .244.147.442.329.442z"/>
    <path fill="#828282" d="M2.329 22c.838 0 1.279-.323 1.667-.607.365-.268.68-.5 1.351-.5.671 0 .987.232 1.352.5.388.284.828.607 1.667.607.838 0 1.278-.323 1.666-.607.365-.268.681-.5 1.352-.5.67 0 .986.232 1.351.5.389.284.829.607 1.667.607.838 0 1.278-.323 1.666-.607.365-.268.681-.5 1.352-.5.67 0 .986.232 1.351.5.389.284.828.607 1.667.607.181 0 .329-.198.329-.442 0-.245-.148-.443-.33-.443-.67 0-.986-.231-1.35-.5-.389-.284-.829-.606-1.667-.606-.839 0-1.279.322-1.667.607-.365.268-.68.499-1.351.499-.67 0-.986-.231-1.352-.499-.388-.285-.828-.607-1.666-.607s-1.279.322-1.667.607c-.365.268-.68.499-1.351.499-.671 0-.987-.231-1.352-.499-.388-.285-.828-.607-1.667-.607-.838 0-1.278.322-1.666.607-.366.268-.681.499-1.352.499-.182 0-.329.198-.329.443 0 .244.147.442.329.442z"/>
</svg>
