<svg xmlns="http://www.w3.org/2000/svg" width="460" height="308" fill="none" viewBox="0 0 460 308">
    <path fill="#EBEBEB" d="M422 244.302H46v.188h376v-.188zM384.326 256.309H359.42v.188h24.906v-.188zM272.685 256.406h-6.535v.188h6.535v-.188zM358.662 249.385h-46.203v.188h46.203v-.188zM215.305 253.786h-9.543v.188h9.543v-.188zM199.071 253.786h-27.696v.188h27.696v-.188zM104.573 250.637H85.449v.188h19.124v-.188zM165.401 250.637h-56.317v.188h56.317v-.188zM224.223 211.022H79.019c-1.138-.002-2.228-.451-3.032-1.25-.803-.799-1.255-1.882-1.255-3.01V4.223c.01-1.122.466-2.195 1.269-2.986C76.803.447 77.888.002 79.019 0h145.204c1.138 0 2.23.449 3.036 1.248.805.799 1.257 1.883 1.257 3.013v202.501c0 1.13-.452 2.213-1.257 3.012-.806.8-1.898 1.248-3.036 1.248zM79.019.149c-1.088.002-2.13.432-2.899 1.196-.768.764-1.2 1.8-1.2 2.878v202.539c0 1.079.432 2.114 1.2 2.878.769.764 1.811 1.194 2.899 1.196h145.204c1.088-.002 2.131-.432 2.901-1.196.769-.763 1.202-1.798 1.204-2.878V4.223c-.002-1.08-.435-2.115-1.204-2.878-.77-.764-1.813-1.194-2.901-1.196H79.019zM386.89 211.022H241.679c-1.139-.002-2.23-.451-3.034-1.25-.805-.798-1.258-1.881-1.26-3.01V4.223c.012-1.123.469-2.196 1.273-2.986.804-.79 1.889-1.235 3.021-1.237H386.89c1.13.004 2.212.45 3.013 1.24.801.79 1.256 1.862 1.266 2.983v202.539c0 1.127-.451 2.209-1.253 3.007-.802.799-1.89 1.249-3.026 1.253zM241.679.149c-1.089.002-2.132.432-2.901 1.196-.77.763-1.203 1.798-1.205 2.878v202.539c.002 1.08.435 2.115 1.205 2.878.769.764 1.812 1.194 2.901 1.196H386.89c1.088-.002 2.131-.432 2.901-1.196.77-.763 1.203-1.798 1.205-2.878V4.223c-.002-1.08-.435-2.115-1.205-2.878-.77-.764-1.813-1.194-2.901-1.196H241.679z"/>
    <path fill="#E6E6E6" d="M189.468 145.141h182.766V12.67H189.468V145.14z"/>
    <path fill="#F0F0F0" d="M181.389 145.141h188.97V12.67h-188.97V145.14z"/>
    <path fill="#FAFAFA" d="M359.045 133.918V23.893h-166.35v110.025h166.35z"/>
    <path fill="#fff" d="M318.607 133.911L280.736 23.893h-36.164l37.871 110.018h36.164zM274.676 133.911L236.805 23.893h-14.092l37.871 110.018h14.092z"/>
    <path fill="#E6E6E6" d="M194.137 133.918V23.893H192.7v110.025h1.437z"/>
    <path fill="#E0E0E0" d="M94.557 109.108h64.537V18.319H94.557v90.789z"/>
    <path fill="#F5F5F5" d="M89.99 109.108h66.522V18.319H89.99v90.789z"/>
    <path fill="#fff" d="M149.949 101.945V25.468H96.557v76.477h53.392z"/>
    <path fill="#E6E6E6" d="M119.644 172.669c4.791-11.731 16.183-16.096 20.124-23.505 5.151-9.701 5.121-24.259.752-29.505-3.82-4.566-16.454 26.296-17.875 29.743-3.899 9.304-6.339 19.146-7.234 29.184.105-7.246.203-13.902.285-19.035.271-16.745.602-22.132.752-23.789.527-.813 1.151-1.754 1.504-2.239 3.061-4.275 9.844-9.372 13.236-15.587 4.948-9.082 4.151-19.946.676-23.99-3.632-4.231-10.046 5.768-13.453 15.669-3.406 9.902-1.955 19.401-2.91 27.61-.196 1.611-.406 7.738-.594 16.244-1.038-9.148-3.098-15.274-6.911-20.99-4.693-7.022-8.746-15.573-12.611-14.469-3.865 1.104-1.79 12.424 1.27 20.364 2.738 7.074 16.161 14.132 18.139 19.818-.233 11.522-.444 26.117-.587 39.72-1.06-7.022-.33-7.611-4.677-18.364-2.579-6.387-13.145-14.267-14.423-9.879-1.279 4.387.654 12.685 4.647 18.505 3.226 4.686 10.378 4.679 12.032 7.589.384.679 1.662 3.283 2.391 4.776-.173 16.595-.248 31.25-.165 36.242l.692.052c0-1.291.052-9.7.188-20.893 1.737-5.969 13.43-9.409 17.04-15.595 3.76-6.47 6.497-14.021 4.873-19.073-1.354-4.216-12.032 1.492-16.326 8.499-2.88 4.656-4.64 9.619-5.459 16.29.097-7.612.21-15.79.315-23.505.88-1.941 2.858-6.373 4.309-9.887z"/>
    <path fill="#F0F0F0" d="M126.511 244.303h-24.575c-.649-.001-1.279-.224-1.781-.632-.503-.408-.849-.975-.979-1.607l-1.744-8.506h33.591l-1.744 8.529c-.137.627-.487 1.189-.99 1.592s-1.131.623-1.778.624z"/>
    <path fill="#F0F0F0" d="M131.727 236.833H96.722c-.406-.001-.797-.15-1.1-.419-.301-.268-.494-.637-.54-1.037l-.752-6.305c-.025-.229-.002-.46.07-.68.07-.219.186-.421.341-.593.155-.171.344-.309.555-.403.212-.095.441-.144.673-.145h36.427c.233 0 .463.048.675.142.212.094.402.232.557.404.155.172.271.374.341.594.071.22.093.452.067.681l-.752 6.305c-.044.387-.225.745-.51 1.011-.285.267-.656.424-1.047.445zM351.036 238.863h7.513v-80.208h-7.513v80.208zM197.949 244.206h157.717v-5.343H197.949v5.343z"/>
    <path fill="#F5F5F5" d="M351.043 158.655H195.07v80.208h155.973v-80.208z"/>
    <path fill="#E0E0E0" d="M352.806 158.655h7.76v-5.059h-7.76v5.059z"/>
    <path fill="#EBEBEB" d="M352.809 153.596H193.047v5.059h159.762v-5.059z"/>
    <path fill="#fff" d="M339.843 193.263H206.258c-1.595 0-3.126-.629-4.254-1.748-1.128-1.12-1.762-2.638-1.762-4.222v-17.162c0-1.583.634-3.101 1.762-4.221 1.128-1.119 2.659-1.748 4.254-1.748h133.585c1.596 0 3.126.629 4.254 1.748 1.129 1.12 1.762 2.638 1.762 4.221v17.162c0 1.584-.633 3.102-1.762 4.222-1.128 1.119-2.658 1.748-4.254 1.748zm-133.585-27.609c-1.196 0-2.344.472-3.19 1.311-.846.84-1.322 1.979-1.322 3.166v17.162c0 1.188.476 2.327 1.322 3.166.846.84 1.994 1.312 3.19 1.312h133.585c1.197 0 2.345-.472 3.191-1.312.846-.839 1.321-1.978 1.321-3.166v-17.162c0-1.187-.475-2.326-1.321-3.166-.846-.839-1.994-1.311-3.191-1.311H206.258zM339.843 229.222H206.258c-1.595 0-3.126-.629-4.254-1.749-1.128-1.119-1.762-2.638-1.762-4.221V206.09c0-1.584.634-3.102 1.762-4.221 1.128-1.12 2.659-1.749 4.254-1.749h133.585c1.596 0 3.126.629 4.254 1.749 1.129 1.119 1.762 2.637 1.762 4.221v17.162c0 1.583-.633 3.102-1.762 4.221-1.128 1.12-2.658 1.749-4.254 1.749zm-133.585-27.669c-1.196 0-2.344.472-3.19 1.311-.846.84-1.322 1.979-1.322 3.166v17.162c0 1.188.476 2.326 1.322 3.166.846.84 1.994 1.311 3.19 1.311h133.585c1.197 0 2.345-.471 3.191-1.311.846-.84 1.321-1.978 1.321-3.166V206.03c0-1.187-.475-2.326-1.321-3.166-.846-.839-1.994-1.311-3.191-1.311H206.258z"/>
    <path fill="#fff" d="M309.488 181.325h-72.869c-.517 0-1.013-.203-1.38-.566-.366-.362-.573-.853-.575-1.367v-1.417c.002-.514.209-1.005.575-1.367.367-.363.863-.566 1.38-.566h72.869c.517 0 1.014.203 1.38.566.366.362.573.853.575 1.367v1.417c-.002.514-.209 1.005-.575 1.367-.366.363-.863.566-1.38.566zm-72.869-3.731c-.118.002-.23.049-.314.131-.084.082-.133.192-.137.309v1.418c.004.117.053.228.137.31.084.082.196.128.314.13h72.869c.118 0 .232-.046.316-.128.085-.083.133-.194.135-.312v-1.418c-.002-.117-.05-.229-.135-.311-.084-.083-.198-.129-.316-.129h-72.869zM309.488 217.283h-72.869c-.517 0-1.013-.204-1.38-.566-.366-.362-.573-.854-.575-1.367v-1.418c.002-.513.209-1.005.575-1.367.367-.362.863-.565 1.38-.565h72.869c.517 0 1.014.203 1.38.565.366.362.573.854.575 1.367v1.418c-.002.513-.209 1.005-.575 1.367-.366.362-.863.566-1.38.566zm-72.869-3.791c-.118.002-.23.049-.314.13-.084.082-.133.193-.137.31v1.418c.004.117.053.228.137.31.084.082.196.128.314.13h72.869c.118 0 .232-.046.316-.128.085-.083.133-.195.135-.312v-1.418c-.002-.117-.05-.229-.135-.312-.084-.082-.198-.128-.316-.128h-72.869z"/>
    <path fill="#F5F5F5" d="M230 308c127.025 0 230-3.806 230-8.5S357.025 291 230 291c-127.026 0-230 3.806-230 8.5s102.974 8.5 230 8.5z"/>
    <path fill="#2D74FF" d="M289.545 79.582H165.209c-5.87 0-10.629 4.722-10.629 10.547v77.696c0 5.824 4.759 10.546 10.629 10.546h124.336c5.87 0 10.628-4.722 10.628-10.546V90.129c0-5.825-4.758-10.547-10.628-10.547zM151.185 78.446c-.249 0-.488-.099-.665-.273l-1.708-1.686c-.178-.177-.279-.418-.279-.669 0-.25.101-.491.279-.668.179-.178.421-.277.674-.277.253 0 .495.1.674.277l1.699 1.695c.176.177.275.415.275.664 0 .249-.099.488-.275.664-.089.087-.194.156-.31.203-.116.047-.239.071-.364.07zM148.614 84.357h-2.401c-.252 0-.493-.1-.671-.276-.178-.177-.278-.416-.278-.666 0-.25.1-.49.278-.666.178-.177.419-.276.671-.276h2.401c.251 0 .493.1.671.276.178.177.278.416.278.666 0 .25-.1.49-.278.666-.178.177-.42.276-.671.276zM157.23 75.903c-.241 0-.473-.09-.649-.253-.176-.162-.283-.385-.3-.624l-.171-2.382c-.009-.124.007-.249.046-.366.04-.118.102-.227.184-.32.082-.094.182-.17.294-.226.112-.055.234-.088.359-.096.25-.016.496.068.685.232.189.164.304.395.321.644l.18 2.383c.009.123-.006.248-.046.365-.039.118-.102.227-.184.32-.082.094-.182.17-.294.226-.112.055-.234.088-.358.097h-.067z"/>
    <path fill="#2D74FF" d="M237.998 168.211l38.178 37.874v-37.874h-38.178z"/>
    <path fill="#fff" d="M248.464 151.62l-1.898-7.995c-.479-2.102-.479-4.283 0-6.384l2.638-11.385c1.079-4.855.495-9.928-1.661-14.416-2.155-4.488-5.759-8.133-10.239-10.359.084-.209.157-.423.218-.64.156-.69.173-1.405.051-2.102-.123-.698-.382-1.364-.764-1.962-.382-.597-.879-1.114-1.463-1.522-.583-.407-1.242-.696-1.938-.85-.696-.155-1.416-.172-2.118-.05-.703.121-1.375.379-1.977.758-.602.379-1.123.872-1.534 1.45-.41.58-.701 1.233-.857 1.924-.047.22-.076.443-.085.668-5.009.117-9.835 1.888-13.714 5.033-3.88 3.145-6.591 7.485-7.705 12.331l-2.572 11.394c-.472 2.098-1.413 4.064-2.752 5.754l-5.115 6.45c-.5.633-.831 1.381-.961 2.175-.131.793-.057 1.607.215 2.365.272.757.733 1.434 1.34 1.968.606.533 1.339.905 2.13 1.082l45.076 10.019c.788.169 1.607.138 2.379-.09.773-.228 1.475-.646 2.042-1.215.567-.569.98-1.271 1.201-2.04.221-.769.242-1.582.063-2.361zM214.423 154.087c-.343-.075-.699-.065-1.037.03-.338.094-.647.269-.901.51-.253.242-.443.541-.552.872-.108.331-.133.684-.072 1.027.259 1.513.966 2.916 2.03 4.029 1.065 1.113 2.44 1.886 3.949 2.222 1.509.335 3.085.217 4.527-.34 1.441-.556 2.683-1.525 3.567-2.785.202-.283.331-.612.375-.957.044-.345.001-.695-.123-1.019-.125-.325-.328-.614-.592-.843-.264-.228-.581-.388-.922-.467l-10.249-2.279zM179.807 138.238c-.235.002-.467-.055-.675-.165-.207-.11-.383-.27-.512-.466-4.482-6.663-6.113-14.82-4.534-22.676 1.578-7.857 6.237-14.769 12.952-19.218.315-.207.699-.282 1.069-.207.371.074.696.29.905.603.209.312.284.694.209 1.061-.074.367-.293.69-.608.897-6.078 4.04-10.292 10.309-11.716 17.43-1.423 7.121.06 14.511 4.124 20.547.21.311.287.692.214 1.06-.073.367-.29.69-.603.899-.244.16-.532.242-.825.235z"/>
    <path fill="#fff" d="M185.832 134.227c-.234-.001-.463-.06-.668-.17-.205-.11-.38-.268-.509-.461-3.412-5.076-4.653-11.288-3.452-17.271 1.201-5.984 4.746-11.25 9.858-14.641.155-.103.33-.175.514-.212.184-.036.373-.036.556.001.184.036.359.108.515.211.155.103.289.236.393.391.104.154.177.328.213.51.037.182.037.37 0 .552-.036.182-.109.356-.213.51-.104.155-.238.288-.394.391-4.486 2.971-7.599 7.588-8.654 12.836-1.056 5.249.033 10.698 3.027 15.15.21.311.287.692.214 1.059-.073.367-.29.691-.603.899-.236.157-.513.242-.797.245z"/>
    <path fill="#fff" d="M191.868 130.225c-.233.001-.462-.055-.667-.163-.206-.109-.381-.266-.51-.458-1.162-1.728-1.97-3.666-2.377-5.704-.407-2.037-.405-4.135.005-6.172.411-2.037 1.223-3.973 2.388-5.699 1.166-1.725 2.664-3.206 4.407-4.356.313-.194.69-.258 1.05-.181.361.077.677.29.883.594.205.304.284.675.219 1.035-.065.361-.269.682-.568.896-1.429.947-2.657 2.165-3.612 3.582-.956 1.418-1.62 3.009-1.956 4.682-.336 1.673-.336 3.395-.001 5.068.335 1.673.999 3.264 1.954 4.682.207.312.283.692.21 1.059-.073.366-.288.689-.599.9-.245.16-.533.242-.826.235zM261.873 158.098c-.318-.001-.627-.107-.877-.303-.25-.195-.427-.468-.502-.775-.076-.307-.045-.63.086-.917.131-.288.356-.524.638-.67 6.502-3.333 11.404-9.092 13.628-16.01 2.225-6.918 1.59-14.43-1.765-20.884-.102-.165-.169-.35-.196-.542-.026-.193-.013-.388.04-.575.053-.187.144-.361.268-.512.123-.15.277-.274.451-.363.174-.089.364-.141.559-.153.196-.013.391.015.575.08.184.066.353.169.495.302.142.134.255.295.332.473 1.833 3.527 2.947 7.377 3.28 11.331.333 3.954-.123 7.935-1.341 11.714-1.218 3.78-3.174 7.284-5.757 10.313-2.583 3.029-5.742 5.523-9.297 7.34-.192.094-.403.145-.617.151z"/>
    <path fill="#fff" d="M258.545 151.705c-.318-.001-.627-.107-.877-.303-.25-.195-.427-.468-.502-.775-.076-.307-.045-.63.086-.918.131-.287.356-.523.638-.669 2.375-1.215 4.485-2.882 6.21-4.907 1.725-2.025 3.03-4.367 3.842-6.893.812-2.525 1.114-5.185.889-7.827-.225-2.641-.973-5.213-2.201-7.568-.173-.333-.206-.722-.092-1.079.115-.358.369-.655.705-.828.336-.172.727-.205 1.087-.091.361.114.661.365.834.699 1.399 2.684 2.251 5.615 2.507 8.627.256 3.011-.088 6.043-1.014 8.922-.925 2.879-2.413 5.548-4.379 7.856-1.966 2.308-4.371 4.209-7.078 5.594-.202.107-.427.162-.655.16z"/>
    <path fill="#fff" d="M255.214 145.311c-.317-.006-.623-.115-.871-.312-.248-.196-.423-.469-.498-.774-.075-.306-.045-.628.084-.916.129-.287.351-.524.631-.673 1.527-.78 2.885-1.851 3.995-3.153 1.11-1.302 1.951-2.808 2.473-4.432.523-1.624.718-3.335.573-5.034-.144-1.699-.625-3.353-1.414-4.867-.174-.334-.207-.722-.092-1.079.115-.358.368-.656.704-.828.336-.172.727-.205 1.088-.091.36.114.66.365.834.698 1.931 3.73 2.292 8.067 1.004 12.06-1.288 3.994-4.12 7.317-7.875 9.24-.197.101-.414.156-.636.161z"/>
</svg>
