<svg width="388" height="302" viewBox="0 0 388 302" fill="none" xmlns="http://www.w3.org/2000/svg">
    <path d="M299.299 115.226c-19.481-45.788-69.529-78.765-118.007-93.278C55.772-16.165-1.361 160.625 38.022 199.246c33.458 41.886 74.642 16.444 105.129 25.711 171.577 52.865 173.028-71.688 156.148-109.731z" fill="#2D74FF"/>
    <path opacity=".9" d="M299.299 115.226c-19.481-45.788-69.529-78.765-118.007-93.278C55.772-16.165-1.361 160.625 38.022 199.246c33.458 41.886 74.642 16.444 105.129 25.711 171.577 52.865 173.028-71.688 156.148-109.731z" fill="#fff"/>
    <path d="M194 302c107.143 0 194-5.044 194-11.267s-86.857-11.268-194-11.268S0 284.51 0 290.733C0 296.956 86.857 302 194 302z" fill="#F5F5F5"/>
    <path d="M95.034 223.738c1.857 6.241.449 14.267-1.8 20.379a30.923 30.923 0 0 1-12.003 15.087c-.613.401-1.402.79-2.05.446a2.084 2.084 0 0 1-.788-1.576 31.663 31.663 0 0 1 2.582-19.937 31.888 31.888 0 0 1 14.082-14.416" fill="#2D74FF"/>
    <path opacity=".2" d="M95.034 223.738c1.857 6.241.449 14.267-1.8 20.379a30.923 30.923 0 0 1-12.003 15.087c-.613.401-1.402.79-2.05.446a2.084 2.084 0 0 1-.788-1.576 31.663 31.663 0 0 1 2.582-19.937 31.888 31.888 0 0 1 14.082-14.416" fill="#000"/>
    <path d="M67.144 194.112c3.907-.107 6.484 4.214 6.876 8.088.392 3.875-.471 7.908.67 11.613 1.431 4.722 5.894 8.111 7.234 12.873 1.59 5.609-1.505 11.432-1.653 17.256-.073 2.824.568 5.699.029 8.472a10.424 10.424 0 0 1-3.572 6.067 10.52 10.52 0 0 1-6.63 2.434 10.521 10.521 0 0 1-6.676-2.303 10.423 10.423 0 0 1-3.693-5.994c-.914-4.361 1.022-8.998-.136-13.308-.857-3.18-3.344-5.886-3.549-9.173-.238-3.914 2.805-7.298 3.373-11.178.568-3.88-1.408-7.67-1.703-11.585-.528-7.015 2.39-12.522 9.425-13.273" fill="#2D74FF"/>
    <path d="M75.707 274.008c.053-.126.093-.257.12-.39.067-.294.153-.672.255-1.13.21-.977.568-2.395.965-4.14a134.28 134.28 0 0 1 9.442-26.372c.778-1.621 1.425-2.92 1.885-3.819l.517-1.033c.066-.119.12-.243.159-.373a1.704 1.704 0 0 0-.222.333l-.568 1.006c-.5.875-1.186 2.163-1.992 3.773a117.514 117.514 0 0 0-9.465 26.423 91.5 91.5 0 0 0-.852 4.18c-.074.457-.136.836-.187 1.129a1.924 1.924 0 0 0-.057.413zM67.305 213.249c.002.208.021.416.056.621l.216 1.774.869 6.524c.732 5.507 1.743 13.11 2.805 21.52 1.061 8.41 1.976 16.03 2.628 21.549.33 2.728.597 4.953.79 6.529.096.746.17 1.339.227 1.774.02.207.054.413.102.615a3.658 3.658 0 0 0 0-.621c-.04-.441-.09-1.034-.159-1.785-.165-1.581-.392-3.807-.67-6.546-.568-5.524-1.46-13.15-2.52-21.56a1128.543 1128.543 0 0 0-2.92-21.515c-.408-2.717-.743-4.931-.976-6.501-.125-.746-.221-1.333-.29-1.768a3.33 3.33 0 0 0-.158-.61z" fill="#263238"/>
    <path d="M89.346 266.377H59.674v3.445h29.672v-3.445z" fill="#263238"/>
    <path d="m62.428 269.821 3.48 20.911h18.407l2.408-20.911H62.428z" fill="#263238"/>
    <path d="M86.819 269.681c0 .084-5.48.214-12.242.299-6.762.085-12.241.085-12.241 0s5.479-.215 12.241-.299c6.762-.085 12.242-.079 12.242 0zM85.808 280.147h-.658a12.78 12.78 0 0 1-1.897-.074 5.805 5.805 0 0 1-2.805-1.05 3.924 3.924 0 0 1-1.22-1.435 2.81 2.81 0 0 1-.176-2.101 1.912 1.912 0 0 1 1.85-1.333c.438.036.845.238 1.136.565.285.343.48.75.568 1.186.358 1.785-.903 3.773-2.839 4.394-1.936.622-4.298-.452-5.263-2.4a3.984 3.984 0 0 1-.432-1.582 2.63 2.63 0 0 1 .432-1.627 2.068 2.068 0 0 1 1.476-.881 1.772 1.772 0 0 1 1.561.768c.344.483.521 1.064.506 1.655a3.642 3.642 0 0 1-.426 1.638 5.1 5.1 0 0 1-2.362 2.226 9.64 9.64 0 0 1-3.026.853 6.659 6.659 0 0 1-3.01-.26 4.33 4.33 0 0 1-2.27-1.762 3.082 3.082 0 0 1-.296-2.666 2.426 2.426 0 0 1 1.868-1.655 2.383 2.383 0 0 1 2.169.802 2.036 2.036 0 0 1 .193 2.078 3.178 3.178 0 0 1-1.25 1.412 7.104 7.104 0 0 1-1.47.712c-.47.181-.908.322-1.305.435-.607.176-1.223.316-1.846.418l-.488.073h-.165s.051 0 .16-.045l.482-.096a19.194 19.194 0 0 0 3.111-.926 7.072 7.072 0 0 0 1.431-.717c.503-.33.898-.799 1.136-1.35a1.824 1.824 0 0 0-.182-1.876 2.168 2.168 0 0 0-1.97-.711 2.211 2.211 0 0 0-1.67 1.513 2.815 2.815 0 0 0 .284 2.452 4.099 4.099 0 0 0 2.13 1.644c.93.295 1.917.376 2.884.237a9.526 9.526 0 0 0 2.93-.831 4.844 4.844 0 0 0 2.23-2.106 2.866 2.866 0 0 0-.056-2.983 1.456 1.456 0 0 0-1.3-.649 1.76 1.76 0 0 0-1.255.757 2.306 2.306 0 0 0-.38 1.446c.03.51.163 1.01.391 1.468.903 1.825 3.123 2.875 4.923 2.259 1.8-.615 2.992-2.445 2.663-4.083a2.301 2.301 0 0 0-.511-1.079 1.419 1.419 0 0 0-.977-.503 1.715 1.715 0 0 0-1.013.317c-.295.21-.515.509-.627.852a2.605 2.605 0 0 0 .147 1.955c.261.545.65 1.02 1.136 1.384.8.581 1.736.949 2.72 1.067.623.081 1.25.122 1.879.124h.494l.255.091z" fill="#455A64"/>
    <path d="m295.88 153.32 7.004 80.706c.561 6.569-3.472 12.332-9.005 12.8l-153.947 13.139c-5.503.478-10.476-4.519-11.006-11.078l-7.004-80.716a13.484 13.484 0 0 1 .35-4.519c1.1-4.509 4.442-7.963 8.625-8.272l153.947-13.149c4.172-.358 8.005 2.439 9.916 6.679a13.774 13.774 0 0 1 1.12 4.41z" fill="#2D74FF"/>
    <path opacity=".1" d="m295.88 153.32 7.004 80.706c.561 6.569-3.472 12.332-9.005 12.8l-153.947 13.139c-5.503.478-10.476-4.519-11.006-11.078l-7.004-80.716a13.484 13.484 0 0 1 .35-4.519c1.1-4.509 4.442-7.963 8.625-8.272l153.947-13.149c4.172-.358 8.005 2.439 9.916 6.679a13.774 13.774 0 0 1 1.12 4.41z" fill="#000"/>
    <path d="m314.157 200.895-1.093.131.442 3.637 1.092-.131-.441-3.637zM312.026 183.337l-1.092.132 1.645 13.548 1.092-.131-1.645-13.549zM302.775 138.886l10.066 82.776c.81 6.729-3.132 12.801-8.775 13.478l-157.88 19.002c-5.643.677-10.936-4.28-11.756-11.019l-10.066-82.766a14.22 14.22 0 0 1 .2-4.669c1.001-4.668 4.283-8.301 8.575-8.819l157.88-18.992c4.292-.518 8.374 2.22 10.446 6.52a14.184 14.184 0 0 1 1.31 4.489z" fill="#2D74FF"/>
    <path opacity=".1" d="m301.464 134.397-71.611 47.968a26.58 26.58 0 0 1-24.213 2.916l-81.046-29.593c1-4.668 4.282-8.301 8.575-8.819l157.879-18.992c4.263-.518 8.345 2.22 10.416 6.52z" fill="#000"/>
    <path d="m274.749 152.284-20.572 13.776-6.734 4.519-17.59 11.785a26.48 26.48 0 0 1-23.623 3.126l-.63-.209-9.866-3.603-22.212-8.113-10.386-3.792-11.767-4.3-.85-20.694-1.912-45.987 90.382-3.653 34.449 25.969.36 8.829.951 22.347z" fill="#2D74FF"/>
    <path opacity=".7" d="m274.749 152.284-20.572 13.776-6.734 4.519-17.59 11.785a26.48 26.48 0 0 1-23.623 3.126l-.63-.209-9.866-3.603-22.212-8.113-10.386-3.792-11.767-4.3-.85-20.694-1.912-45.987 90.382-3.653 34.449 25.969.36 8.829.951 22.347z" fill="#fff"/>
    <path opacity=".1" d="m273.477 121.108-23.934-1.025-10.516-24.944 34.45 25.969z" fill="#263238"/>
    <path d="m273.477 121.108-23.223-3.951-11.227-22.018 34.45 25.969zM319.514 24.576c0 20.246-22.303 40.144-25.645 40.144-3.342 0-25.644-19.908-25.644-40.144C268.225 11.01 279.701 0 293.869 0c14.168 0 25.645 11.009 25.645 24.576z" fill="#2D74FF"/>
    <path opacity=".1" d="M289.106 19.53c-4.643 5.066-10.947 6.878-14.078 3.981-3.132-2.896-1.911-9.247 2.721-14.313 4.633-5.067 10.946-6.878 14.088-4.042 3.142 2.837 1.911 9.307-2.731 14.374zM275.429 39.925c-.61-1.513-.45-2.986.36-3.325.811-.338 2.001.637 2.572 2.15.57 1.513.45 2.986-.36 3.315-.811.329-1.962-.637-2.572-2.14z" fill="#fff"/>
    <path d="M292.769 128.425a.422.422 0 0 1-.41-.408 6.203 6.203 0 0 1 1.161-3.753 5.883 5.883 0 0 0 0-6.649 6.652 6.652 0 0 1 0-7.505 5.86 5.86 0 0 0 0-6.639 6.63 6.63 0 0 1 0-7.496 5.86 5.86 0 0 0 0-6.639 6.63 6.63 0 0 1 0-7.495 5.86 5.86 0 0 0 0-6.64 6.63 6.63 0 0 1 0-7.494 5.451 5.451 0 0 0 1-3.315.421.421 0 0 1 .831 0 6.2 6.2 0 0 1-1.161 3.743 5.518 5.518 0 0 0-1.001 3.324 5.459 5.459 0 0 0 1.001 3.315 6.637 6.637 0 0 1 1.161 3.747 6.637 6.637 0 0 1-1.161 3.748 5.824 5.824 0 0 0 0 6.64 6.637 6.637 0 0 1 1.161 3.747 6.637 6.637 0 0 1-1.161 3.747 5.824 5.824 0 0 0 0 6.64 6.637 6.637 0 0 1 1.161 3.747 6.638 6.638 0 0 1-1.161 3.748 5.832 5.832 0 0 0 0 6.649 6.655 6.655 0 0 1 0 7.505 5.47 5.47 0 0 0-1.001 3.325.41.41 0 0 1-.42.408z" fill="#263238"/>
    <path d="M293.871 63.764c-.791 0-6.004 4.678-6.004 9.436h12.027c0-4.758-5.203-9.436-6.023-9.436z" fill="#2D74FF"/>
    <path d="M295.049 63.924h-2.361a.35.35 0 0 0-.35.348v.25a.35.35 0 0 0 .35.347h2.361a.35.35 0 0 0 .351-.348v-.249a.35.35 0 0 0-.351-.348z" fill="#263238"/>
    <path d="M146.606 62.009c0 10.893-12.183 21.604-14.008 21.604-1.826 0-14.008-10.716-14.008-21.604 0-7.309 6.269-13.235 14.008-13.235 7.739 0 14.008 5.926 14.008 13.235z" fill="#003396"/>
    <path opacity=".1" d="M128.806 39.272c4.639-5.07 5.86-11.481 2.727-14.321-3.132-2.84-9.432-1.034-14.071 4.035-4.639 5.07-5.86 11.482-2.727 14.322 3.132 2.84 9.432 1.033 14.071-4.036zM115.128 59.663c-.61-1.513-.45-2.986.36-3.324.811-.339 2.002.637 2.572 2.15.57 1.513.45 2.986-.36 3.324-.811.339-1.961-.637-2.572-2.15z" fill="#fff"/>
    <path d="M131.828 147.338a.41.41 0 0 1-.41-.408 6.209 6.209 0 0 1 1.16-3.753 5.877 5.877 0 0 0 0-6.649 6.653 6.653 0 0 1 0-7.505 5.46 5.46 0 0 0 1.001-3.315 5.52 5.52 0 0 0-1.001-3.325 6.634 6.634 0 0 1 0-7.495 5.457 5.457 0 0 0 1.001-3.314 5.518 5.518 0 0 0-1.001-3.325 6.637 6.637 0 0 1 0-7.495 5.853 5.853 0 0 0 0-6.63 6.636 6.636 0 0 1 0-7.495 5.518 5.518 0 0 0 1.001-3.324.42.42 0 0 1 .41-.408.411.411 0 0 1 .41.408 6.232 6.232 0 0 1-1.15 3.752 5.8 5.8 0 0 0 0 6.63 6.69 6.69 0 0 1 1.15 3.747c0 1.335-.401 2.64-1.15 3.748a5.51 5.51 0 0 0-1.001 3.324 5.452 5.452 0 0 0 1.001 3.315 6.688 6.688 0 0 1 0 7.495 5.514 5.514 0 0 0-1.001 3.325 5.45 5.45 0 0 0 1.001 3.314 6.693 6.693 0 0 1 1.15 3.748c0 1.335-.401 2.64-1.15 3.748a5.824 5.824 0 0 0 0 6.649 6.697 6.697 0 0 1 0 7.505 5.49 5.49 0 0 0-1.001 3.325.41.41 0 0 1-.42.408z" fill="#2D74FF"/>
    <path d="M132.929 82.688c-.79 0-6.003 4.668-6.003 9.426h12.007c.02-4.758-5.223-9.427-6.004-9.427z" fill="#003396"/>
    <path d="M134.108 82.836h-2.361a.35.35 0 0 0-.351.348v.25a.35.35 0 0 0 .351.348h2.361a.35.35 0 0 0 .35-.349v-.249a.35.35 0 0 0-.35-.348z" fill="#2D74FF"/>
    <path d="M307.752 146.905c6.061-5.536 6.462-14.912.897-20.942-5.565-6.029-14.99-6.428-21.05-.892-6.061 5.537-6.462 14.912-.897 20.942 5.565 6.029 14.99 6.428 21.05.892z" fill="#EC4E4E"/>
    <g clip-path="url(#a)">
        <path d="M218.124 125.751c-11.967 0-21.679 9.662-21.679 21.567s9.712 21.566 21.679 21.566c11.967 0 21.679-9.661 21.679-21.566s-9.712-21.567-21.679-21.567zm0 38.82c-9.56 0-17.343-7.742-17.343-17.253s7.783-17.254 17.343-17.254c9.561 0 17.343 7.743 17.343 17.254 0 9.511-7.782 17.253-17.343 17.253zm9.951-26.786-14.287 14.213-5.614-5.565-3.057 3.041 8.671 8.627 17.344-17.253-3.057-3.063z" fill="#707980"/>
    </g>
    <defs>
        <clipPath id="a">
            <path fill="#fff" transform="translate(192.109 121.438)" d="M0 0h52.029v51.76H0z"/>
        </clipPath>
    </defs>
</svg>
