<svg width="125" height="125" viewBox="0 0 125 125" fill="none" xmlns="http://www.w3.org/2000/svg">
<circle r="62.5" transform="matrix(-1 0 0 1 62.5 62.5)" fill="white"/>
<g clip-path="url(#clip0)">
<path d="M107.755 79.4185H102.434C98.8525 97.6119 80.0003 107.753 62.5798 107.753C45.1309 107.753 26.303 97.5915 22.7252 79.4185H17.4042C15.6481 79.4185 14.7687 77.1295 16.0105 75.7908L27.0205 63.9207C27.7902 63.0908 29.0382 63.0908 29.8081 63.9207L40.8181 75.7908C42.0599 77.1296 41.1805 79.4185 39.4244 79.4185H33.6514C36.9842 89.0375 47.6072 94.7524 57.3237 96.0677V62.4179H48.7823C47.6938 62.4179 46.8112 61.4664 46.8112 60.2928V53.2092C46.8112 52.0356 47.6938 51.0841 48.7823 51.0841H57.3237V50.1154C51.2 47.7817 46.8121 41.4867 46.8112 34.0856C46.8102 24.8344 53.7748 17.2135 62.3548 17.0846C71.1667 16.9519 78.3485 24.6135 78.3485 34.0834C78.3485 41.4855 73.9602 47.7814 67.836 50.1154V51.0841H76.3774C77.466 51.0841 78.3485 52.0356 78.3485 53.2092V60.2928C78.3485 61.4664 77.466 62.4179 76.3774 62.4179H67.836V96.0677C77.5167 94.7574 88.1744 89.0409 91.5083 79.4185H85.7353C83.9793 79.4185 83.0998 77.1295 84.3416 75.7908L95.3516 63.9207C96.1213 63.0908 97.3694 63.0908 98.1392 63.9207L109.149 75.7908C110.391 77.1295 109.511 79.4185 107.755 79.4185ZM62.5798 28.4166C59.6815 28.4166 57.3236 30.9587 57.3236 34.0834C57.3236 37.2082 59.6815 39.7503 62.5798 39.7503C65.4781 39.7503 67.836 37.2082 67.836 34.0834C67.836 30.9587 65.4781 28.4166 62.5798 28.4166Z" fill="#2D74FF"/>
</g>
<defs>
<clipPath id="clip0">
<rect width="94.6124" height="90.6702" fill="white" transform="matrix(-1 0 0 1 109.887 17.0828)"/>
</clipPath>
</defs>
</svg>
