<svg width="30" height="31" viewBox="0 0 30 31" fill="none" xmlns="http://www.w3.org/2000/svg">
<path d="M28.1689 16.461C27.4599 23.6263 20.9949 28.794 13.715 27.9863C6.43519 27.1787 1.12214 20.7043 1.83111 13.539C2.54009 6.37375 9.00507 1.20607 16.2849 2.01371C23.5648 2.82134 28.8778 9.29569 28.1689 16.461Z" fill="#4CAF9F" stroke="black"/>
<g filter="url(#filter0_d_13_2)">
<path d="M14.9949 6.74998C15.1385 6.74998 15.2822 6.78116 15.4133 6.84038L21.2937 9.33097C21.9807 9.62086 22.4929 10.2973 22.4898 11.114C22.4741 14.2062 21.2 19.8637 15.8193 22.4354C15.2978 22.6847 14.692 22.6847 14.1704 22.4354C8.78976 19.8637 7.51563 14.2062 7.50001 11.114C7.49689 10.2973 8.00904 9.62086 8.69607 9.33097L14.5795 6.84038C14.7076 6.78116 14.8512 6.74998 14.9949 6.74998Z" fill="#4CAF9F"/>
<path d="M15.2076 7.29608L15.2075 7.2962L15.2183 7.30079L21.0987 9.79137L21.0993 9.79164C21.6179 10.0104 21.992 10.5153 21.9898 11.1119C21.9744 14.1226 20.7302 19.5341 15.6037 21.9842L15.6036 21.9843C15.2185 22.1684 14.7713 22.1684 14.3861 21.9843L14.3861 21.9842C9.2595 19.5341 8.0153 14.1225 8.00001 11.1118C7.99784 10.5152 8.37192 10.0104 8.89045 9.79164L8.89098 9.79141L14.7745 7.30083L14.782 7.29763L14.7895 7.29418C14.8502 7.2661 14.922 7.24998 14.9949 7.24998C15.067 7.24998 15.1405 7.2658 15.2076 7.29608Z" stroke="#0B0003"/>
</g>
<path d="M19.3126 11.456C19.5637 11.7307 19.5637 12.1767 19.3126 12.4514L14.1697 18.0764C13.9186 18.351 13.5108 18.351 13.2597 18.0764L10.6883 15.2639C10.4372 14.9892 10.4372 14.5432 10.6883 14.2685C10.9394 13.9938 11.3472 13.9938 11.5983 14.2685L13.7157 16.5822L18.4046 11.456C18.6557 11.1813 19.0635 11.1813 19.3146 11.456H19.3126Z" fill="black"/>
<defs>
<filter id="filter0_d_13_2" x="3.5" y="6.74998" width="22.9898" height="23.8724" filterUnits="userSpaceOnUse" color-interpolation-filters="sRGB">
<feFlood flood-opacity="0" result="BackgroundImageFix"/>
<feColorMatrix in="SourceAlpha" type="matrix" values="0 0 0 0 0 0 0 0 0 0 0 0 0 0 0 0 0 0 127 0" result="hardAlpha"/>
<feOffset dy="4"/>
<feGaussianBlur stdDeviation="2"/>
<feComposite in2="hardAlpha" operator="out"/>
<feColorMatrix type="matrix" values="0 0 0 0 0 0 0 0 0 0 0 0 0 0 0 0 0 0 0.25 0"/>
<feBlend mode="normal" in2="BackgroundImageFix" result="effect1_dropShadow_13_2"/>
<feBlend mode="normal" in="SourceGraphic" in2="effect1_dropShadow_13_2" result="shape"/>
</filter>
</defs>
</svg>
