<svg width="21" height="20" viewBox="0 0 21 20" fill="none" xmlns="http://www.w3.org/2000/svg">
<path d="M9.33115 18.8614L13.9454 11.7762C18.4619 11.727 20.6665 11.1451 20.6665 10.0004C20.6665 8.85519 18.4622 8.27329 13.9464 8.22407L9.33115 1.13886C9.26164 1.03171 9.11776 0.97855 8.98038 1.00808L7.26031 1.38102C7.11805 1.41167 7.02192 1.5222 7.02192 1.64511C7.02192 1.66114 7.02354 1.67689 7.02679 1.69348L8.40323 8.38129C7.26096 8.45441 6.15149 8.54835 5.14725 8.6631C4.80688 8.70163 4.49541 8.741 4.2057 8.7801L2.70324 6.44124C2.64088 6.34505 2.51746 6.29021 2.39014 6.30342L0.943546 6.45445C0.853256 6.4643 0.771734 6.50733 0.720743 6.57258C0.685017 6.61814 0.666504 6.67158 0.666504 6.7253C0.666504 6.74892 0.670076 6.77255 0.676897 6.79561L1.46126 9.35384C0.751923 9.61765 0.750299 9.8525 0.750299 10.0004C0.750299 10.1484 0.751925 10.3826 1.46093 10.6465L0.676897 13.2041C0.670076 13.2272 0.666504 13.2508 0.666504 13.2739C0.666504 13.3276 0.685017 13.3816 0.720743 13.4272C0.771734 13.4924 0.852932 13.5354 0.943222 13.5447L2.38982 13.698C2.51713 13.7118 2.64088 13.6572 2.70324 13.5602L4.20505 11.2202C4.49508 11.2599 4.80655 11.2987 5.14725 11.3378C6.15149 11.452 7.26096 11.5465 8.40323 11.619L7.02711 18.3068C7.02386 18.3229 7.02224 18.3386 7.02224 18.3546C7.02224 18.4778 7.11838 18.5886 7.26064 18.6187L8.9807 18.9917C9.11776 19.0218 9.26164 18.9686 9.33115 18.8614ZM7.69845 1.84817L8.90048 1.58773L13.2201 8.22013C11.8758 8.22182 10.4403 8.26513 9.03494 8.34332L7.69845 1.84817ZM1.37844 6.95901L2.25503 6.86733L3.54606 8.87713C2.91987 8.97556 2.43334 9.07485 2.05659 9.17159L1.37844 6.95901ZM1.86659 9.78668C1.88413 9.785 1.90102 9.78781 1.91888 9.78387C1.95461 9.77572 1.98514 9.76025 2.01372 9.74309C2.48726 9.6095 3.19497 9.47619 4.07026 9.35244C4.07156 9.35187 4.07286 9.35187 4.07416 9.35187C6.38956 9.02394 9.87484 8.76407 13.3059 8.76407C19.5512 8.76407 20.0364 9.7099 20.0364 10.0002C20.0364 10.2896 19.5512 11.2357 13.3059 11.2357C9.87711 11.2357 6.3941 10.9764 4.07838 10.649C4.07448 10.6484 4.07124 10.6479 4.06734 10.6473C3.19626 10.5238 2.49083 10.3908 2.01826 10.2583C1.98838 10.2403 1.95623 10.2243 1.91888 10.2156C1.90037 10.2116 1.8825 10.2145 1.86432 10.2128C1.63631 10.1408 1.47879 10.0693 1.40344 10.0002C1.47879 9.93068 1.63729 9.85868 1.86659 9.78668ZM2.25536 13.1344L1.37844 13.0416L2.05659 10.829C2.43334 10.9263 2.91987 11.025 3.54573 11.124L2.25536 13.1344ZM7.69845 18.1516L9.03462 11.657C10.44 11.7355 11.8755 11.779 13.2195 11.7805L8.90048 18.412L7.69845 18.1516Z" fill="#4F7BC9" stroke="#4F7BC9" stroke-width="0.6"/>
</svg>
