<svg width="20" height="22" viewBox="0 0 20 22" fill="none" xmlns="http://www.w3.org/2000/svg">
<path d="M18.6437 1C18.3677 0.999817 18.1432 1.22345 18.1431 1.49939V2.31781C16.3419 4.63263 13.5761 5.99048 10.6431 6H3.64307C2.26288 6.00128 1.14435 7.11981 1.14307 8.5V11.5C1.14435 12.8802 2.26288 13.9987 3.64307 14H4.88428L2.18304 20.3027C2.07458 20.5572 2.19299 20.8514 2.44745 20.9599C2.50928 20.9863 2.57581 20.9999 2.64307 21H6.64307C6.84308 21 7.02399 20.881 7.10309 20.6973L9.97327 14H10.6431C13.5761 14.0095 16.3419 15.3674 18.1431 17.6822V18.5C18.1431 18.7761 18.3669 19 18.6431 19C18.9192 19 19.1431 18.7761 19.1431 18.5V1.5C19.1432 1.224 18.9196 1.00018 18.6437 1ZM3.64307 13C2.815 12.9991 2.14398 12.3281 2.14307 11.5V8.5C2.14398 7.67194 2.815 7.00092 3.64307 7H5.14307V13H3.64307ZM6.31299 20H3.40088L5.97314 14H8.88525L6.31299 20ZM18.1431 16.1643C16.1667 14.1491 13.4656 13.0095 10.6431 13H6.14307V7H10.6431C13.4656 6.99054 16.1667 5.85089 18.1431 3.83569V16.1643Z" fill="white" stroke="white"/>
</svg>
