<svg width="16" height="16" viewBox="0 0 16 16" fill="none" xmlns="http://www.w3.org/2000/svg">
<path d="M7.98196 15.9034C7.47127 15.9034 6.97419 15.8439 6.49071 15.7249C6.00738 15.6057 5.50127 15.4168 4.97238 15.1582C4.38363 15.4114 3.81551 15.592 3.268 15.6999C2.7205 15.8078 2.14439 15.8756 1.53967 15.9034C1.36231 15.912 1.21384 15.8564 1.09425 15.7365C0.974532 15.6167 0.914671 15.4682 0.914671 15.2911C0.914671 15.1139 0.974602 14.9659 1.09446 14.8472C1.21419 14.7284 1.36259 14.6638 1.53967 14.6534C1.83564 14.6395 2.11794 14.6161 2.38655 14.583C2.6553 14.55 2.92057 14.4995 3.18238 14.4315C3.44405 14.3638 3.7087 14.2786 3.97634 14.1759C4.24398 14.0734 4.52044 13.9554 4.80571 13.8218C4.86974 13.794 4.93384 13.7801 4.998 13.7801C5.06203 13.7801 5.12613 13.794 5.1903 13.8218C5.64335 14.074 6.08217 14.2751 6.50676 14.4251C6.93148 14.5752 7.42321 14.6503 7.98196 14.6503C8.54071 14.6503 9.03245 14.5752 9.45717 14.4251C9.88189 14.2751 10.3207 14.074 10.7736 13.8218C10.8378 13.794 10.9019 13.7801 10.9659 13.7801C11.0301 13.7801 11.0942 13.794 11.1582 13.8218C11.4489 13.9606 11.728 14.0814 11.9955 14.184C12.2631 14.2865 12.5292 14.3704 12.7936 14.4355C13.0581 14.5008 13.3266 14.5494 13.5993 14.5813C13.872 14.6134 14.1577 14.6375 14.4563 14.6534C14.6334 14.6638 14.7818 14.7288 14.9015 14.8482C15.0214 14.9678 15.0813 15.1159 15.0813 15.2924C15.0813 15.469 15.0215 15.6172 14.9018 15.7368C14.7822 15.8565 14.6337 15.912 14.4563 15.9034C13.8454 15.8737 13.2637 15.8067 12.7113 15.7024C12.1588 15.5982 11.5899 15.4168 11.0045 15.1582C10.4756 15.4168 9.96731 15.6057 9.47967 15.7249C8.99189 15.8439 8.49266 15.9034 7.98196 15.9034ZM7.98592 12.8234C7.27287 12.8234 6.63453 12.5964 6.07092 12.1424C5.50731 11.6882 5.10266 11.3169 4.85696 11.0284C4.5771 11.3159 4.29717 11.567 4.01717 11.7818C3.73731 11.9965 3.4537 12.1829 3.16634 12.3409C2.92912 12.4681 2.68738 12.4677 2.44113 12.3395C2.19488 12.2113 2.03273 12.0136 1.95467 11.7465L0.728213 7.66426C0.66988 7.45954 0.689116 7.26898 0.785922 7.09259C0.882866 6.91634 1.03425 6.79669 1.24009 6.73363L2.36509 6.4003V3.25613C2.36509 2.84183 2.51259 2.48717 2.80759 2.19217C3.10259 1.89717 3.45717 1.74967 3.87134 1.74967H6.17905V0.836341C6.17905 0.622868 6.25127 0.443981 6.39571 0.299675C6.54002 0.155231 6.71891 0.0830078 6.93238 0.0830078H9.03155C9.24502 0.0830078 9.42391 0.155231 9.56821 0.299675C9.71266 0.443981 9.78488 0.622868 9.78488 0.836341V1.74967H12.0926C12.5068 1.74967 12.8614 1.89717 13.1565 2.19217C13.4515 2.48717 13.599 2.84183 13.599 3.25613V6.4003L14.7238 6.73363C14.9298 6.79669 15.0812 6.91634 15.178 7.09259C15.2748 7.26898 15.2942 7.45967 15.2361 7.66467L14.0172 11.7545C13.9393 12.0163 13.7785 12.2099 13.5349 12.3353C13.2913 12.4609 13.0482 12.4627 12.8057 12.3409C12.5097 12.1829 12.2231 11.9978 11.9459 11.7857C11.6687 11.5736 11.3918 11.3212 11.1151 11.0284C10.8586 11.3169 10.4512 11.6882 9.89301 12.1424C9.33481 12.5964 8.69912 12.8234 7.98592 12.8234ZM3.61488 3.22405V6.05905L7.58134 4.9228C7.71495 4.88113 7.84849 4.8603 7.98196 4.8603C8.11557 4.8603 8.24912 4.88113 8.38259 4.9228L12.349 6.05905V3.22405C12.349 3.15988 12.3263 3.10648 12.2809 3.06384C12.2355 3.02106 12.1807 2.99967 12.1165 2.99967H3.84738C3.78321 2.99967 3.72842 3.02106 3.683 3.06384C3.63759 3.10648 3.61488 3.15988 3.61488 3.22405ZM7.98196 6.11509L2.11009 7.78822L3.02842 10.9965C3.27953 10.8299 3.50953 10.6424 3.71842 10.434C3.92731 10.2257 4.13696 10.0083 4.34738 9.78176C4.49905 9.6119 4.68544 9.53044 4.90655 9.53738C5.1278 9.54433 5.30946 9.63433 5.45155 9.80738C5.79238 10.2038 6.16814 10.5972 6.57884 10.9876C6.98967 11.3781 7.47217 11.5734 8.02634 11.5734C8.56634 11.5734 9.0353 11.3761 9.43321 10.9813C9.83113 10.5865 10.2005 10.1952 10.5413 9.80738C10.6813 9.63294 10.8627 9.54259 11.0853 9.53634C11.3081 9.53009 11.4948 9.6119 11.6455 9.78176C11.8559 10.0083 12.0656 10.2257 12.2745 10.434C12.4834 10.6424 12.7134 10.8299 12.9645 10.9965L13.8826 7.78822L7.98196 6.11509Z" fill="#4F7BC9"/>
</svg>
