<svg width="13" height="16" viewBox="0 0 13 16" fill="none" xmlns="http://www.w3.org/2000/svg">
<path d="M0.0834961 10.7561V2.99967C0.0834961 2.35967 0.257107 1.84766 0.604329 1.46363C0.951552 1.07961 1.41495 0.786341 1.99454 0.583841C2.57412 0.381341 3.24051 0.247244 3.9937 0.181549C4.7469 0.115855 5.52683 0.0830078 6.3335 0.0830078C7.19669 0.0830078 8.00787 0.115855 8.76704 0.181549C9.52607 0.247244 10.189 0.381341 10.7558 0.583841C11.3226 0.786341 11.7689 1.07961 12.0947 1.46363C12.4206 1.84766 12.5835 2.35967 12.5835 2.99967V10.7561C12.5835 11.5007 12.3263 12.1302 11.8118 12.6447C11.2974 13.1591 10.6679 13.4163 9.92329 13.4163L10.6283 14.1215C10.8111 14.3042 10.8546 14.5101 10.7589 14.7393C10.6634 14.9684 10.4863 15.083 10.2277 15.083C10.1518 15.083 10.0795 15.0697 10.0106 15.043C9.94169 15.0162 9.88051 14.9761 9.82704 14.9228L8.32079 13.4163H4.3462L2.83995 14.9228C2.78648 14.9761 2.7253 15.0162 2.65641 15.043C2.58752 15.0697 2.51516 15.083 2.43933 15.083C2.18933 15.083 2.01433 14.9684 1.91433 14.7393C1.81447 14.5101 1.85593 14.3042 2.0387 14.1215L2.7437 13.4163C1.99912 13.4163 1.36961 13.1591 0.855163 12.6447C0.340718 12.1302 0.0834961 11.5007 0.0834961 10.7561ZM6.3335 1.33301C4.78114 1.33301 3.64864 1.43051 2.936 1.62551C2.22336 1.82051 1.76614 2.07558 1.56433 2.39072H11.1541C10.9777 2.05849 10.5311 1.79912 9.81433 1.61259C9.09739 1.4262 7.93711 1.33301 6.3335 1.33301ZM1.3335 6.74967H5.7085V3.64072H1.3335V6.74967ZM9.92329 7.99967H1.3335H11.3335H9.92329ZM6.9585 6.74967H11.3335V3.64072H6.9585V6.74967ZM3.41683 11.1728C3.72989 11.1728 3.98975 11.0694 4.19641 10.8626C4.40322 10.6559 4.50662 10.3961 4.50662 10.083C4.50662 9.76995 4.40322 9.51009 4.19641 9.30342C3.98975 9.09662 3.72989 8.99322 3.41683 8.99322C3.10377 8.99322 2.84391 9.09662 2.63725 9.30342C2.43044 9.51009 2.32704 9.76995 2.32704 10.083C2.32704 10.3961 2.43044 10.6559 2.63725 10.8626C2.84391 11.0694 3.10377 11.1728 3.41683 11.1728ZM9.25016 11.1728C9.56322 11.1728 9.82308 11.0694 10.0297 10.8626C10.2366 10.6559 10.34 10.3961 10.34 10.083C10.34 9.76995 10.2366 9.51009 10.0297 9.30342C9.82308 9.09662 9.56322 8.99322 9.25016 8.99322C8.93711 8.99322 8.67725 9.09662 8.47058 9.30342C8.26377 9.51009 8.16037 9.76995 8.16037 10.083C8.16037 10.3961 8.26377 10.6559 8.47058 10.8626C8.67725 11.0694 8.93711 11.1728 9.25016 11.1728ZM2.7437 12.1663H9.92329C10.3218 12.1663 10.6564 12.0309 10.9272 11.7601C11.1981 11.4893 11.3335 11.1546 11.3335 10.7561V7.99967H1.3335V10.7561C1.3335 11.1546 1.46891 11.4893 1.73975 11.7601C2.01058 12.0309 2.34523 12.1663 2.7437 12.1663ZM6.3335 2.39072H11.1541H1.56433H6.3335Z" fill="#4F7BC9"/>
</svg>
