<svg width="18" height="14" viewBox="0 0 18 14" fill="none" xmlns="http://www.w3.org/2000/svg">
<path d="M3.86922 13.2981C3.21866 13.2981 2.66637 13.0706 2.21234 12.6156C1.75832 12.1606 1.5313 11.6082 1.5313 10.9583H0.874219C0.660885 10.9583 0.481997 10.8862 0.337552 10.7419C0.193247 10.5974 0.121094 10.4185 0.121094 10.2052V2.25646C0.121094 1.83549 0.266927 1.47917 0.558594 1.1875C0.85026 0.895833 1.20651 0.75 1.62734 0.75H11.4671C11.8814 0.75 12.2361 0.8975 12.5311 1.1925C12.8261 1.4875 12.9736 1.84215 12.9736 2.25646V3.92312H14.4319C14.6704 3.92312 14.8964 3.97646 15.1098 4.08312C15.3232 4.18979 15.4989 4.33729 15.6369 4.52562L17.7267 7.32375C17.777 7.38653 17.8147 7.45556 17.8398 7.53083C17.8648 7.60625 17.8773 7.68785 17.8773 7.77562V10.2052C17.8773 10.4185 17.8052 10.5974 17.6609 10.7419C17.5164 10.8862 17.3376 10.9583 17.1242 10.9583H16.3711C16.3711 11.6082 16.1434 12.1606 15.688 12.6156C15.2327 13.0706 14.6798 13.2981 14.0294 13.2981C13.379 13.2981 12.8267 13.0706 12.3726 12.6156C11.9185 12.1606 11.6915 11.6082 11.6915 10.9583H6.21068C6.21068 11.61 5.98304 12.1628 5.52776 12.6169C5.07248 13.071 4.51964 13.2981 3.86922 13.2981ZM3.87109 12.0481C4.17665 12.0481 4.43464 11.9428 4.64505 11.7323C4.85547 11.5219 4.96068 11.2639 4.96068 10.9583C4.96068 10.6528 4.85547 10.3947 4.64505 10.1842C4.43464 9.97375 4.17665 9.86854 3.87109 9.86854C3.56554 9.86854 3.30748 9.97375 3.09693 10.1842C2.88651 10.3947 2.7813 10.6528 2.7813 10.9583C2.7813 11.2639 2.88651 11.5219 3.09693 11.7323C3.30748 11.9428 3.56554 12.0481 3.87109 12.0481ZM1.37109 9.70833H1.97359C2.15095 9.39958 2.40707 9.14076 2.74193 8.93187C3.07693 8.72299 3.45332 8.61854 3.87109 8.61854C4.27804 8.61854 4.65165 8.72167 4.99193 8.92792C5.3322 9.13417 5.59102 9.39431 5.76839 9.70833H11.7236V2.25646C11.7236 2.1816 11.6996 2.12014 11.6515 2.07208C11.6035 2.02403 11.542 2 11.4671 2H1.62734C1.56332 2 1.50457 2.02674 1.45109 2.08021C1.39776 2.13354 1.37109 2.19229 1.37109 2.25646V9.70833ZM14.0313 12.0481C14.3369 12.0481 14.5948 11.9428 14.8053 11.7323C15.0158 11.5219 15.1211 11.2639 15.1211 10.9583C15.1211 10.6528 15.0158 10.3947 14.8053 10.1842C14.5948 9.97375 14.3369 9.86854 14.0313 9.86854C13.7257 9.86854 13.4677 9.97375 13.2571 10.1842C13.0467 10.3947 12.9415 10.6528 12.9415 10.9583C12.9415 11.2639 13.0467 11.5219 13.2571 11.7323C13.4677 11.9428 13.7257 12.0481 14.0313 12.0481ZM12.9736 8.04167H16.7076L14.6242 5.27729C14.5976 5.24521 14.5669 5.21979 14.5321 5.20104C14.4974 5.18243 14.4587 5.17312 14.4159 5.17312H12.9736V8.04167Z" fill="#4F7BC9"/>
</svg>
