<svg width="295" height="24" viewBox="0 0 295 24" fill="none" xmlns="http://www.w3.org/2000/svg">
<path d="M7.368 21.144C6.12 21.144 4.92 20.944 3.768 20.544C2.632 20.128 1.752 19.6 1.128 18.96L1.824 17.592C2.416 18.168 3.208 18.656 4.2 19.056C5.208 19.44 6.264 19.632 7.368 19.632C8.424 19.632 9.28 19.504 9.936 19.248C10.608 18.976 11.096 18.616 11.4 18.168C11.72 17.72 11.88 17.224 11.88 16.68C11.88 16.024 11.688 15.496 11.304 15.096C10.936 14.696 10.448 14.384 9.84 14.16C9.232 13.92 8.56 13.712 7.824 13.536C7.088 13.36 6.352 13.176 5.616 12.984C4.88 12.776 4.2 12.504 3.576 12.168C2.968 11.832 2.472 11.392 2.088 10.848C1.72 10.288 1.536 9.56 1.536 8.664C1.536 7.832 1.752 7.072 2.184 6.384C2.632 5.68 3.312 5.12 4.224 4.704C5.136 4.272 6.304 4.056 7.728 4.056C8.672 4.056 9.608 4.192 10.536 4.464C11.464 4.72 12.264 5.08 12.936 5.544L12.336 6.96C11.616 6.48 10.848 6.128 10.032 5.904C9.232 5.68 8.456 5.568 7.704 5.568C6.696 5.568 5.864 5.704 5.208 5.976C4.552 6.248 4.064 6.616 3.744 7.08C3.44 7.528 3.288 8.04 3.288 8.616C3.288 9.272 3.472 9.8 3.84 10.2C4.224 10.6 4.72 10.912 5.328 11.136C5.952 11.36 6.632 11.56 7.368 11.736C8.104 11.912 8.832 12.104 9.552 12.312C10.288 12.52 10.96 12.792 11.568 13.128C12.192 13.448 12.688 13.88 13.056 14.424C13.44 14.968 13.632 15.68 13.632 16.56C13.632 17.376 13.408 18.136 12.96 18.84C12.512 19.528 11.824 20.088 10.896 20.52C9.984 20.936 8.808 21.144 7.368 21.144ZM19.9016 21V4.2H21.3656L29.0456 17.304H28.2776L35.8856 4.2H37.3496V21H35.6456V6.864H36.0536L29.0456 18.864H28.2056L21.1496 6.864H21.6056V21H19.9016ZM42.5355 21L50.2155 4.2H51.9675L59.6475 21H57.7755L50.7195 5.232H51.4395L44.3835 21H42.5355ZM45.5595 16.512L46.0875 15.072H55.8555L56.3835 16.512H45.5595ZM64.8266 21V4.2H71.1146C72.5386 4.2 73.7626 4.432 74.7866 4.896C75.8106 5.344 76.5946 6 77.1386 6.864C77.6986 7.712 77.9786 8.744 77.9786 9.96C77.9786 11.144 77.6986 12.168 77.1386 13.032C76.5946 13.88 75.8106 14.536 74.7866 15C73.7626 15.448 72.5386 15.672 71.1146 15.672H65.8106L66.6026 14.856V21H64.8266ZM76.2986 21L71.9786 14.904H73.8986L78.2426 21H76.2986ZM66.6026 15L65.8106 14.16H71.0666C72.7466 14.16 74.0186 13.792 74.8826 13.056C75.7626 12.32 76.2026 11.288 76.2026 9.96C76.2026 8.616 75.7626 7.576 74.8826 6.84C74.0186 6.104 72.7466 5.736 71.0666 5.736H65.8106L66.6026 4.896V15ZM87.6 21V5.736H81.696V4.2H95.28V5.736H89.376V21H87.6Z" fill="white"/>
<path d="M104.98 14.38V5.62H106.66V14.38H104.98ZM101.34 10.8V9.22H110.3V10.8H101.34Z" fill="white"/>
<path d="M116.409 22.38V13.62H118.089V22.38H116.409ZM112.769 18.8V17.22H121.729V18.8H112.769Z" fill="white"/>
<path d="M131.879 21V4.2H133.343L144.935 18.792H144.167V4.2H145.919V21H144.455L132.887 6.408H133.655V21H131.879ZM151.115 21L158.795 4.2H160.547L168.227 21H166.355L159.299 5.232H160.019L152.963 21H151.115ZM154.139 16.512L154.667 15.072H164.435L164.963 16.512H154.139ZM177.314 21L169.874 4.2H171.794L178.754 20.016H177.698L184.706 4.2H186.506L179.066 21H177.314ZM191.345 21V4.2H193.121V21H191.345ZM208.355 21.144C207.075 21.144 205.891 20.936 204.803 20.52C203.731 20.088 202.795 19.488 201.995 18.72C201.211 17.952 200.595 17.048 200.147 16.008C199.715 14.968 199.499 13.832 199.499 12.6C199.499 11.368 199.715 10.232 200.147 9.192C200.595 8.152 201.219 7.248 202.019 6.48C202.819 5.712 203.755 5.12 204.827 4.704C205.915 4.272 207.099 4.056 208.379 4.056C209.659 4.056 210.827 4.256 211.883 4.656C212.955 5.056 213.867 5.664 214.619 6.48L213.515 7.608C212.811 6.904 212.035 6.4 211.187 6.096C210.339 5.792 209.427 5.64 208.451 5.64C207.411 5.64 206.451 5.816 205.571 6.168C204.707 6.504 203.947 6.992 203.291 7.632C202.651 8.256 202.147 8.992 201.779 9.84C201.427 10.672 201.251 11.592 201.251 12.6C201.251 13.592 201.427 14.512 201.779 15.36C202.147 16.208 202.651 16.952 203.291 17.592C203.947 18.216 204.707 18.704 205.571 19.056C206.451 19.392 207.403 19.56 208.427 19.56C209.387 19.56 210.291 19.416 211.139 19.128C212.003 18.84 212.795 18.352 213.515 17.664L214.523 19.008C213.723 19.712 212.787 20.248 211.715 20.616C210.643 20.968 209.523 21.144 208.355 21.144ZM212.819 18.792V12.6H214.523V19.008L212.819 18.792ZM219.261 21L226.941 4.2H228.693L236.373 21H234.501L227.445 5.232H228.165L221.109 21H219.261ZM222.285 16.512L222.813 15.072H232.581L233.109 16.512H222.285ZM243.973 21V5.736H238.069V4.2H251.653V5.736H245.749V21H243.973ZM264 21.144C262.736 21.144 261.56 20.936 260.472 20.52C259.4 20.088 258.464 19.488 257.664 18.72C256.88 17.936 256.264 17.032 255.816 16.008C255.384 14.968 255.168 13.832 255.168 12.6C255.168 11.368 255.384 10.24 255.816 9.216C256.264 8.176 256.88 7.272 257.664 6.504C258.464 5.72 259.4 5.12 260.472 4.704C261.544 4.272 262.72 4.056 264 4.056C265.264 4.056 266.432 4.272 267.504 4.704C268.576 5.12 269.504 5.712 270.288 6.48C271.088 7.248 271.704 8.152 272.136 9.192C272.584 10.232 272.808 11.368 272.808 12.6C272.808 13.832 272.584 14.968 272.136 16.008C271.704 17.048 271.088 17.952 270.288 18.72C269.504 19.488 268.576 20.088 267.504 20.52C266.432 20.936 265.264 21.144 264 21.144ZM264 19.56C265.008 19.56 265.936 19.392 266.784 19.056C267.648 18.704 268.392 18.216 269.016 17.592C269.656 16.952 270.152 16.216 270.504 15.384C270.856 14.536 271.032 13.608 271.032 12.6C271.032 11.592 270.856 10.672 270.504 9.84C270.152 8.992 269.656 8.256 269.016 7.632C268.392 6.992 267.648 6.504 266.784 6.168C265.936 5.816 265.008 5.64 264 5.64C262.992 5.64 262.056 5.816 261.192 6.168C260.328 6.504 259.576 6.992 258.936 7.632C258.312 8.256 257.816 8.992 257.448 9.84C257.096 10.672 256.92 11.592 256.92 12.6C256.92 13.592 257.096 14.512 257.448 15.36C257.816 16.208 258.312 16.952 258.936 17.592C259.576 18.216 260.328 18.704 261.192 19.056C262.056 19.392 262.992 19.56 264 19.56ZM279.188 21V4.2H285.476C286.9 4.2 288.124 4.432 289.148 4.896C290.172 5.344 290.956 6 291.5 6.864C292.06 7.712 292.34 8.744 292.34 9.96C292.34 11.144 292.06 12.168 291.5 13.032C290.956 13.88 290.172 14.536 289.148 15C288.124 15.448 286.9 15.672 285.476 15.672H280.172L280.964 14.856V21H279.188ZM290.66 21L286.34 14.904H288.26L292.604 21H290.66ZM280.964 15L280.172 14.16H285.428C287.108 14.16 288.38 13.792 289.244 13.056C290.124 12.32 290.564 11.288 290.564 9.96C290.564 8.616 290.124 7.576 289.244 6.84C288.38 6.104 287.108 5.736 285.428 5.736H280.172L280.964 4.896V15Z" fill="white"/>
</svg>
